<svg xmlns="http://www.w3.org/2000/svg" width="40" height="40" viewBox="0 0 40 40"><g><g><path fill="#fff" fill-opacity=".5" d="M40 20c0 11.044-8.956 20-20 20S0 31.044 0 20 8.956 0 20 0s20 8.956 20 20zm-8.516 0c0-3.119-.013-3.51-.069-4.735-.055-1.222-.25-2.057-.534-2.788a5.626 5.626 0 0 0-1.324-2.034 5.63 5.63 0 0 0-2.034-1.325c-.731-.283-1.566-.477-2.788-.533-1.225-.056-1.616-.07-4.735-.07s-3.51.014-4.735.07c-1.222.056-2.057.25-2.788.534-.766.288-1.46.74-2.034 1.324a5.626 5.626 0 0 0-1.325 2.034c-.283.731-.478 1.566-.533 2.788-.056 1.225-.07 1.616-.07 4.735s.014 3.51.07 4.735c.056 1.222.25 2.057.534 2.788.288.766.74 1.46 1.324 2.034a5.626 5.626 0 0 0 2.035 1.324c.73.284 1.565.478 2.787.534 1.225.056 1.616.07 4.735.07 3.12 0 3.51-.014 4.735-.07 1.222-.056 2.057-.25 2.788-.534a5.872 5.872 0 0 0 3.358-3.358c.284-.731.479-1.566.534-2.788.056-1.225.07-1.616.07-4.735z"/></g></g></svg>