<svg xmlns="http://www.w3.org/2000/svg" width="40" height="40" viewBox="0 0 40 40"><g><g><path fill="#fff" fill-opacity=".5" d="M40 20c0 11.044-8.956 20-20 20S0 31.044 0 20 8.956 0 20 0s20 8.956 20 20zm-8.018-6.012a3.132 3.132 0 0 0-2.203-2.203C27.823 11.25 20 11.25 20 11.25s-7.824 0-9.78.515a3.195 3.195 0 0 0-2.202 2.223C7.503 15.944 7.503 20 7.503 20s0 4.077.515 6.012a3.132 3.132 0 0 0 2.203 2.203c1.976.535 9.779.535 9.779.535s7.824 0 9.78-.515a3.132 3.132 0 0 0 2.202-2.203c.515-1.956.515-6.012.515-6.012s.02-4.076-.515-6.032z"/></g></g></svg>