<svg width="54" height="54" viewBox="0 0 54 54" fill="none" xmlns="http://www.w3.org/2000/svg">
<path opacity="0.4" fill-rule="evenodd" clip-rule="evenodd" d="M23.6813 0.0796115C20.795 0.389343 17.4664 1.40505 14.6641 2.8312C3.88922 8.31446 -1.88967 20.6582 0.669549 32.7229C2.86672 43.0803 10.8005 51.1599 20.9781 53.4044C27.8441 54.9188 35.3764 53.5046 41.1095 49.6246C47.1392 45.5441 51.237 39.3347 52.6329 32.1635C53.0484 30.0281 53.1983 25.9661 52.9407 23.8165C51.6042 12.6626 43.8303 3.55911 33.3052 0.822659C32.2214 0.540888 30.7208 0.234709 29.9706 0.142176C28.7058 -0.0136942 24.9033 -0.0515418 23.6813 0.0796115ZM30.501 2.69557C31.5584 2.87847 34.2558 3.60654 34.4053 3.74943C34.4374 3.78017 32.8911 7.39731 31.562 10.4006C31.4117 10.7404 30.2895 13.3125 29.0683 16.1163C27.847 18.9201 26.7896 21.2738 26.7184 21.3465C26.6467 21.4199 26.4857 21.3165 26.3572 21.1148C26.0741 20.6697 18.8317 4.04433 18.8317 3.83934C18.8317 3.51138 22.1538 2.68955 24.4466 2.4501C26.02 2.28589 28.7781 2.39773 30.501 2.69557ZM19.47 15.5826C21.8826 21.0589 23.9665 25.6265 24.1009 25.7327C24.3824 25.955 28.7756 26.0078 29.1078 25.7929C29.2927 25.6735 38.0785 5.96421 38.0785 5.66915C38.0785 5.39526 38.4027 5.55962 40.0027 6.64546C41.9223 7.94788 44.8854 10.8578 46.0823 12.6159L46.8543 13.75L40.6103 26.4806C37.176 33.4824 34.298 39.1886 34.2143 39.161C34.0159 39.0953 33.6977 38.4076 31.5578 33.418C30.5738 31.124 29.6236 28.9168 29.4458 28.5133L29.1228 27.7795H26.5023H23.8815L23.6868 28.2043C23.4403 28.7416 20.5288 35.6998 19.709 37.7106C19.37 38.5421 19.0169 39.1971 18.9243 39.1661C18.6693 39.0808 18.5617 38.8662 12.2484 25.8681L6.36191 13.7487L6.95356 12.8986C7.9947 11.4027 9.57946 9.60884 10.8202 8.52192C12.1458 7.3607 14.7379 5.51606 14.9496 5.5831C15.0234 5.60643 17.0575 10.1061 19.47 15.5826ZM11.2524 33.0545C15.1591 41.0536 18.4456 47.6566 18.5557 47.7278C18.9046 47.9533 19.4134 47.8725 19.6299 47.5574C19.745 47.3899 21.3285 43.8446 23.1489 39.6789C24.9693 35.5132 26.5404 32.1049 26.6405 32.1049C26.7403 32.1049 28.1687 35.1809 29.8144 38.9407C33.9442 48.3758 33.6451 47.7846 34.2898 47.7846H34.8202L41.9899 33.1091C47.319 22.2011 49.1945 18.4962 49.2955 18.6779C49.552 19.1396 50.1695 21.5246 50.4318 23.0679C50.7434 24.9009 50.786 28.3701 50.5189 30.174C49.7172 35.5886 47.3091 40.4589 43.5308 44.3067C41.5792 46.2944 39.641 47.719 37.245 48.9273C33.1351 50.9998 28.999 51.8283 24.6996 51.4404C18.7034 50.8993 13.4934 48.3667 9.35137 43.9798C6.11837 40.5556 4.14352 36.8039 3.06025 32.0277C2.5624 29.8332 2.48223 25.3511 2.89718 22.9134C3.19709 21.1519 3.90089 18.5107 4.07048 18.5107C4.11397 18.5107 7.34592 25.0554 11.2524 33.0545Z" fill="white"/>
</svg>
