<svg width="69" height="54" viewBox="0 0 69 54" fill="none" xmlns="http://www.w3.org/2000/svg">
<path fill-rule="evenodd" clip-rule="evenodd" d="M64.1586 0.903916C63.1222 1.3994 61.7449 2.05314 61.098 2.35662C60.4512 2.66001 59.3922 3.15679 58.7448 3.46046C54.4369 5.48097 50.9936 6.94635 42.7827 10.2536C40.2448 11.2759 37.6598 12.3181 37.0383 12.5696C36.4167 12.8212 35.1666 13.325 34.2602 13.6891C31.0392 14.9833 29.7677 15.4948 28.2332 16.1137C27.3786 16.4584 25.7683 17.1055 24.6547 17.5517C23.5412 17.9979 21.6554 18.7547 20.4641 19.2336C14.9462 21.4516 10.3875 23.282 7.23303 24.5461C3.7258 25.9517 2.84879 26.3724 1.99258 27.0603C0.642538 28.1449 0.0609347 29.2537 0.0678092 30.7298C0.0720469 31.6479 0.31548 32.4983 0.837189 33.4181C1.20446 34.0655 1.75291 34.6487 5.73052 38.6211L10.2104 43.095L10.5816 43.9097L10.9528 44.7244L13.7294 44.7253L16.5062 44.7261L16.1308 44.3655C15.8003 44.0479 12.6811 41.1579 6.01737 34.995C3.8584 32.9984 3.56166 32.6625 3.31927 31.9399C2.98628 30.9479 3.3154 30.1057 4.30279 29.4229C5.08046 28.8852 5.47127 28.7363 12.9775 26.1183C14.8162 25.4771 17.0834 24.6858 18.0157 24.3601C21.5894 23.1114 24.9558 21.9382 26.5852 21.3738C28.5852 20.681 38.6853 17.1681 43.5832 15.4618C45.4737 14.8031 47.8044 13.9919 48.7626 13.6589C49.7208 13.326 51.6632 12.6505 53.079 12.158C59.9357 9.77207 61.2572 9.16241 62.5962 7.76731C63.4102 6.91904 63.7988 6.33408 64.4533 4.97142C65.1092 3.60567 66.3727 0.3746 66.3727 0.063013C66.3727 -0.1124 65.9429 0.0508965 64.1586 0.903916ZM61.174 11.6431C60.4139 12.0818 53.3686 14.4978 44.6191 17.3202C42.6768 17.9468 40.7274 18.577 40.2872 18.7208C39.8469 18.8646 38.173 19.408 36.5674 19.9284C34.9618 20.4489 32.3132 21.3098 30.6817 21.8417C29.0502 22.3735 25.1091 23.6539 21.9238 24.687C16.1958 26.5446 12.388 27.7819 7.87613 29.2515C6.59831 29.6678 5.4127 30.1017 5.24159 30.2158C4.53605 30.6864 4.31899 31.4277 4.68277 32.1237C4.84268 32.4296 5.48719 33.1071 5.93054 33.4353C6.06069 33.5317 6.57665 33.424 8.94403 32.8058C10.515 32.3957 12.3089 31.9281 12.9304 31.7668C19.1921 30.1413 18.6042 30.3118 18.4552 30.1643C18.3055 30.0162 18.3163 29.5802 18.4729 29.4515C18.543 29.3939 22.537 28.2988 27.3485 27.0179C32.1599 25.737 36.5627 24.5646 37.1324 24.4124C40.1855 23.597 48.7619 21.3256 51.5878 20.5839C55.1442 19.6506 55.993 19.3304 56.988 18.5468C58.3801 17.4505 59.2169 16.2732 60.9959 12.908C61.6327 11.7034 61.6826 11.3497 61.174 11.6431ZM55.6293 21.7429C55.6077 21.764 54.234 22.1265 52.5766 22.5483C50.9191 22.9701 48.8638 23.4937 48.0092 23.7119C47.1546 23.9301 45.2053 24.4276 43.6774 24.8174C42.1494 25.2073 39.6068 25.8561 38.0271 26.2593C35.0168 27.0276 31.9651 27.805 26.7736 29.1256C25.0644 29.5605 23.115 30.0579 22.4417 30.2311C21.7684 30.4043 20.3911 30.7557 19.3811 31.0121C18.3711 31.2685 16.0616 31.8568 14.2488 32.3195C12.436 32.7822 10.0475 33.3909 8.94111 33.6722C7.83469 33.9535 6.91115 34.2018 6.88864 34.224C6.86623 34.2462 7.49275 34.8572 8.28106 35.5818C9.19933 36.4258 9.76756 36.8836 9.86267 36.8559C9.94432 36.8321 13.3154 36.2002 17.3539 35.4515C21.3925 34.7028 24.7087 34.0783 24.7234 34.0637C24.7381 34.0493 24.6651 33.9612 24.5611 33.8682C24.3217 33.6537 24.3208 33.4299 24.5584 33.2171C24.7395 33.0549 25.5468 32.8895 34.5898 31.1621C35.8329 30.9247 38.4603 30.4215 40.4284 30.044C42.3966 29.6664 45.2359 29.1256 46.7379 28.8423C48.24 28.5591 49.7443 28.2387 50.081 28.1305C51.6451 27.6278 52.7963 26.6434 54.2716 24.5475C55.3508 23.0144 56.0138 21.9781 56.0138 21.8246C56.0138 21.7145 55.7214 21.6523 55.6293 21.7429ZM48.5272 30.4709C48.061 30.5659 41.429 31.8008 33.7894 33.215C12.2831 37.1964 10.8726 37.4594 10.6533 37.5299C10.4711 37.5884 10.6025 37.7376 11.819 38.8541C12.5731 39.5462 13.3319 40.23 13.5054 40.3739L13.8209 40.6352L20.5798 39.792C24.2972 39.3281 28.2074 38.8428 29.2691 38.7134C32.0268 38.3772 31.8631 38.4122 31.6685 38.1996C31.4461 37.9563 31.5511 37.599 31.8812 37.4757C32.0243 37.4222 33.7517 37.145 35.7199 36.8597C37.6881 36.5743 40.1797 36.2123 41.2571 36.0552C44.5486 35.5751 45.2239 35.2818 46.9299 33.5923C48.1674 32.3669 49.7985 30.5403 49.7985 30.38C49.7985 30.246 49.5408 30.2645 48.5272 30.4709ZM32.7064 39.2823C32.5255 39.3112 30.7802 39.5155 26.444 40.0155C18.6038 40.9194 14.728 41.378 14.7009 41.4048C14.6836 41.422 15.274 41.9978 16.0129 42.6844C16.7519 43.3711 17.5471 44.1108 17.7802 44.3284L18.204 44.7239L30.1559 44.725C36.7295 44.7256 42.0902 44.71 42.0686 44.6903C41.8003 44.4458 33.1808 39.2304 33.0603 39.2396C32.9692 39.2466 32.81 39.2658 32.7064 39.2823ZM19.1626 46.0294C17.1208 46.2858 15.5669 47.178 14.9711 48.4361C14.7464 48.9106 14.7197 49.0759 14.7197 49.9922C14.7197 50.9406 14.7403 51.0578 14.9949 51.5551C15.335 52.2194 16.0561 52.9071 16.7555 53.2339C18.0607 53.8441 20.0621 54.1184 21.9944 53.9523C25.5026 53.6505 27.2178 52.2213 27.0847 49.711C26.991 47.9447 25.8336 46.7925 23.5718 46.2141C22.7107 45.994 20.2621 45.8914 19.1626 46.0294ZM27.574 46.6705V47.2167L28.146 47.2681C29.1111 47.3547 29.0808 47.268 29.0808 49.9439C29.0808 52.2269 29.0793 52.2447 28.8629 52.446C28.743 52.5574 28.5417 52.6491 28.4156 52.6496C28.2894 52.6502 28.0252 52.6769 27.8286 52.7092L27.4709 52.7676L27.499 53.2441L27.527 53.7205H29.9754H32.4239L32.4519 53.2437C32.4794 52.7749 32.4749 52.7658 32.1812 52.7078C32.0169 52.6753 31.7663 52.6486 31.6244 52.6486C31.4824 52.6486 31.2546 52.5616 31.1182 52.4554L30.87 52.2623L30.8711 50.1951L30.8721 48.1281L31.1301 48.4497C31.2719 48.6265 32.2179 49.8428 33.2323 51.1526C34.2467 52.4624 35.179 53.5859 35.3041 53.6492C35.4627 53.7295 36.1227 53.7647 37.4856 53.7657L39.4396 53.7671V50.7337V47.7002L39.6708 47.4715C39.8107 47.333 40.0105 47.2427 40.177 47.2427C40.3282 47.2427 40.5865 47.216 40.7508 47.1835C41.0445 47.1254 41.049 47.1164 41.0215 46.6475L40.9935 46.1708L38.5639 46.1459L36.1341 46.121L36.1625 46.6585L36.1907 47.1961L36.7417 47.2546C37.6698 47.3533 37.6585 47.322 37.6287 49.71L37.6033 51.7491L35.4808 49.0098C34.0213 47.1263 33.2859 46.2507 33.1265 46.2068C32.9991 46.1715 31.6976 46.1386 30.2344 46.1335L27.574 46.1242V46.6705ZM41.5529 46.2448C41.5236 46.3205 41.5128 46.5655 41.529 46.7893L41.5585 47.1961L42.1706 47.2624C43.133 47.3667 43.1123 47.3073 43.1123 49.9602C43.1123 52.1647 43.1098 52.1936 42.8955 52.4057C42.7377 52.5618 42.5195 52.6382 42.095 52.6857L41.5114 52.751V53.2661V53.7812L46.0552 53.7442C49.962 53.7123 50.6759 53.6851 51.1479 53.55C52.9073 53.0461 53.9054 52.0225 54.117 50.5049C54.4037 48.4501 53.2635 46.9256 51.0061 46.3449C50.1413 46.1224 41.6352 46.0323 41.5529 46.2448ZM0.358517 46.6834C0.358517 46.9397 0.369158 47.1497 0.38206 47.15C0.394961 47.1503 0.655157 47.191 0.960084 47.2404C1.90123 47.3929 1.86526 47.2832 1.86526 50.0045C1.86526 52.7239 1.91969 52.573 0.895293 52.6926L0.349194 52.7563L0.377351 53.2384L0.405603 53.7205L3.44263 53.7451L6.47966 53.7697V53.2674C6.47966 52.7794 6.47128 52.7634 6.18537 52.7068C6.02349 52.6748 5.76923 52.6486 5.62034 52.6486C5.12265 52.6486 4.97292 52.379 4.97292 51.4835V50.6913H7.3272H9.68148V51.528C9.68148 52.5106 9.61811 52.5868 8.71152 52.6926L8.16542 52.7563L8.19358 53.2384L8.22183 53.7205H11.2353H14.2488L14.2769 53.2437C14.3044 52.7749 14.2998 52.7658 14.0061 52.7078C13.8418 52.6753 13.5855 52.6486 13.4366 52.6486C13.2877 52.6486 13.0811 52.5647 12.9775 52.4622C12.7992 52.2857 12.7891 52.1515 12.7891 49.9601C12.7891 47.3522 12.7828 47.3759 13.5073 47.2792C14.3203 47.1708 14.2959 47.1893 14.2959 46.6817V46.2174H11.2353H8.17474V46.6834C8.17474 46.9397 8.18538 47.1497 8.19829 47.15C8.21119 47.1503 8.47138 47.191 8.77631 47.2404C9.59447 47.3731 9.68148 47.4866 9.68148 48.4222V49.2H7.3272H4.97292V48.4222C4.97292 47.5275 5.07745 47.361 5.69107 47.2792C6.50405 47.1708 6.47966 47.1893 6.47966 46.6817V46.2174H3.41909H0.358517V46.6834ZM56.1266 46.7067C56.1539 47.1759 56.1667 47.197 56.4376 47.2197C57.5417 47.3121 57.6834 47.3475 57.7986 47.5608C57.9051 47.7574 57.7934 47.9723 56.4717 50.1138C55.5523 51.6032 54.9493 52.4876 54.8104 52.5503C54.6905 52.6043 54.4567 52.6492 54.2908 52.6499C53.6305 52.6527 53.5535 52.7174 53.5844 53.2432L53.6124 53.7205L56.0373 53.7453L58.4623 53.7702V53.2627V52.7552L57.9588 52.693C57.6819 52.6588 57.4043 52.5995 57.342 52.5614C57.1618 52.4511 57.1909 52.164 57.4206 51.7864L57.6334 51.4369H60.0215H62.4096L62.655 51.8514C62.983 52.4054 62.8741 52.648 62.2965 52.6499C61.5411 52.6523 61.4757 52.7013 61.4757 53.2653V53.7671H64.7718H68.0677V53.2591V52.751L67.4995 52.6875C66.8045 52.6096 66.5737 52.442 66.0469 51.632C64.2633 48.8899 62.5057 46.3283 62.3735 46.2781C62.2856 46.2447 60.8377 46.2174 59.1559 46.2174H56.0981L56.1266 46.7067ZM22.5435 47.6623C22.9065 47.8812 23.0679 48.0627 23.2893 48.5009C23.5413 48.9999 23.5715 49.1506 23.5692 49.899C23.5658 50.996 23.4158 51.4761 22.9242 51.9626C22.388 52.4932 21.7065 52.6888 20.6088 52.6268C19.6831 52.5746 19.1961 52.3766 18.7465 51.8699C18.3307 51.401 18.2046 50.9536 18.2043 49.9456C18.204 49.147 18.2317 49.0057 18.4865 48.5051C18.9691 47.5569 19.4903 47.3225 21.0368 47.3585C22.0087 47.3812 22.1121 47.4019 22.5435 47.6623ZM49.7054 47.8252C50.2896 48.1186 50.569 48.6812 50.6276 49.6823C50.705 51.0064 50.3685 51.8479 49.6411 52.1486C49.4212 52.2396 48.864 52.2758 47.6827 52.2758H46.0316V49.9456V47.6155H47.6597C49.1615 47.6155 49.3201 47.6317 49.7054 47.8252ZM60.7192 48.9437L61.4756 50.0854L60.7223 50.1125C60.308 50.1274 59.634 50.1274 59.2247 50.1125L58.4803 50.0854L59.1917 48.9437C59.583 48.3157 59.9166 47.8019 59.9329 47.8019C59.9493 47.8019 60.3031 48.3157 60.7192 48.9437Z" fill="white"/>
</svg>
