<svg width="64" height="52" viewBox="0 0 64 52" fill="none" xmlns="http://www.w3.org/2000/svg">
<path fill-rule="evenodd" clip-rule="evenodd" d="M23.7951 0.0524195C18.6691 0.458296 17.2251 0.613755 15.6607 0.927478C11.6252 1.73743 9.35844 3.54404 8.35985 6.74678C7.5521 9.33689 7.60835 18.7281 8.46723 24.7201C9.72417 33.4879 11.4196 35.8441 17.3061 37.0016C20.3196 37.5942 23.9421 37.7985 31.4254 37.7981C43.7076 37.7971 47.9956 37.1731 50.7805 34.9812C52.8444 33.3567 53.9356 30.3299 54.7841 23.8753C55.5235 18.2493 55.5196 9.12434 54.7765 6.74678C53.5163 2.71406 50.6598 1.09997 43.4314 0.335091C41.4042 0.120533 25.7753 -0.104442 23.7951 0.0524195ZM41.0791 1.74865C43.5934 1.95439 46.4511 2.37749 47.7297 2.73309C49.0591 3.1031 50.6623 4.20053 51.3557 5.21522C52.3181 6.62397 52.6192 7.85783 52.8777 11.4546C53.2637 16.8236 52.5239 25.7775 51.3884 29.4797C49.6071 35.2879 46.8072 36.2433 31.5678 36.2433C20.0046 36.2433 16.089 35.6283 13.9053 33.4687C12.0652 31.6489 11.201 28.7128 10.4626 21.7718C10.1288 18.634 10.1337 10.7643 10.471 8.75011C11.362 3.42744 14.018 2.13108 25.2512 1.53549C28.905 1.34177 37.5254 1.45776 41.0791 1.74865ZM17.8119 3.28C17.25 3.36754 17.2494 3.36935 17.3574 4.70658C17.4169 5.443 17.6949 9.56147 17.9751 13.8586C18.5751 23.056 19.4761 34.6369 19.6013 34.7597C19.6497 34.8069 20.7281 34.8897 21.9979 34.9434L24.3064 35.0409L24.9536 32.6636C26.1559 28.2462 26.8058 27.0408 28.2507 26.5472C29.2662 26.2002 33.8693 26.2002 34.8849 26.5472C36.3298 27.0408 36.9796 28.2462 38.182 32.6636L38.8291 35.0409L41.1376 34.9434C42.4075 34.8897 43.4885 34.8045 43.5398 34.754C43.6662 34.6302 44.5319 23.4612 45.1594 13.8586C45.4401 9.56147 45.7186 5.4436 45.778 4.70778L45.8862 3.36995L44.8062 3.23773C44.2122 3.16501 43.4578 3.13616 43.1297 3.17322L42.5333 3.24093L41.3698 8.24928C38.9406 18.7061 38.3139 20.6317 36.8991 21.9854C35.6331 23.1962 34.6131 23.4755 31.4655 23.472C27.1696 23.4674 25.7564 22.5537 24.5144 18.977C24.0164 17.543 22.3409 10.8995 21.1775 5.74511L20.6121 3.24093L19.4935 3.21669C18.878 3.20327 18.1214 3.23172 17.8119 3.28ZM16.4429 44.917C14.2708 45.513 13.2315 46.8031 13.4152 48.6758C13.65 51.0676 15.828 52.1719 19.9293 51.9784C22.2383 51.8694 23.4899 51.3856 24.3631 50.2643C24.8282 49.6673 24.9201 49.3484 24.9201 48.3317C24.9201 46.7514 24.3727 45.9571 22.7971 45.2505C21.3499 44.6017 18.1956 44.4362 16.4429 44.917ZM0.0677795 45.311C0.0677795 45.6712 0.17803 45.8119 0.460098 45.8119C1.45296 45.8119 1.4996 45.9243 1.4996 48.316C1.4996 50.7078 1.45296 50.8202 0.460098 50.8202C0.17803 50.8202 0.0677795 50.9609 0.0677795 51.3211V51.8219H2.93142H5.79505V51.3211C5.79505 50.932 5.69012 50.8202 5.3246 50.8202C4.67128 50.8202 4.36323 50.4544 4.36323 49.6783V49.0172H6.52262H8.68221L8.61921 49.8686C8.56296 50.6305 8.4973 50.7267 7.99392 50.7834C7.55005 50.8334 7.43142 50.9508 7.43142 51.3401V51.8331L10.2439 51.7774C12.9012 51.7247 13.0564 51.6997 13.0564 51.3211C13.0564 51.0444 12.8981 50.9006 12.5451 50.8561C12.2638 50.8208 11.9187 50.6457 11.778 50.4672C11.4888 50.1 11.4223 46.6771 11.6964 46.2542C11.7886 46.1118 12.1323 45.9249 12.4602 45.8391C12.8576 45.7349 13.0564 45.554 13.0564 45.2966C13.0564 44.9366 12.8654 44.9066 10.2439 44.8547L7.43142 44.799V45.2804C7.43142 45.655 7.56744 45.7884 8.04505 45.882C8.60489 45.9916 8.65869 46.0729 8.65869 46.8085V47.6149H6.51096H4.36323V46.9538C4.36323 46.1777 4.67128 45.8119 5.3246 45.8119C5.69012 45.8119 5.79505 45.7001 5.79505 45.311V44.8102H2.93142H0.0677795V45.311ZM25.4314 45.286C25.4314 45.6554 25.5699 45.7888 26.0516 45.8832L26.6718 46.0048L26.6141 48.3623L26.5564 50.7201L25.9939 50.7834C25.5521 50.8332 25.4314 50.9514 25.4314 51.3343C25.4314 51.8213 25.4341 51.8219 27.6814 51.8219H29.9314V51.3211C29.9314 50.897 29.8363 50.8202 29.3114 50.8202C28.9703 50.8202 28.6444 50.7004 28.5869 50.554C28.5297 50.4075 28.5094 49.506 28.5423 48.5508L28.6019 46.8139L30.5381 49.3179L32.4741 51.8219H34.4756H36.4769V48.9385C36.4769 45.8722 36.4969 45.8119 37.5164 45.8119C37.7999 45.8119 37.9087 45.671 37.9087 45.3044V44.797L35.6076 44.8537C33.397 44.9082 33.3038 44.9282 33.241 45.3611C33.1882 45.7253 33.2737 45.8119 33.6867 45.8119C34.6206 45.8119 34.8217 46.241 34.6947 47.9645C34.6317 48.8189 34.556 49.5465 34.5265 49.5812C34.4971 49.6158 33.6267 48.5566 32.5921 47.2272L30.7113 44.8102H28.0715H25.4314V45.286ZM38.401 45.0869C38.229 45.5262 38.4286 45.7434 39.1317 45.8812L39.7496 46.0022V48.1708C39.7496 50.4742 39.624 50.8202 38.7882 50.8202C38.4194 50.8202 38.3178 50.9314 38.3178 51.3349V51.8493L42.8689 51.7856C47.2816 51.7237 47.4481 51.7065 48.3405 51.2209C49.3657 50.663 50.1814 49.376 50.1814 48.316C50.1814 47.1916 49.3704 45.9773 48.2448 45.4166C47.2675 44.9298 47.0613 44.908 42.8744 44.8461C39.1229 44.7906 38.5041 44.8238 38.401 45.0869ZM52.0223 45.3056C52.0223 45.671 52.1313 45.8119 52.4146 45.8119C52.9972 45.8119 53.4541 46.0236 53.4541 46.2935C53.4541 46.5938 51.0313 50.468 50.7192 50.667C50.5921 50.7479 50.2812 50.8154 50.028 50.8172C49.6743 50.8194 49.5678 50.9362 49.5678 51.3211V51.8219H51.8178H54.0678V51.3211C54.0678 50.9204 53.9655 50.8202 53.5564 50.8202C53.2003 50.8202 53.0451 50.7106 53.0451 50.4596C53.0451 49.7562 53.4699 49.6182 55.6356 49.6182C57.533 49.6182 57.7565 49.6573 57.9564 50.0231C58.2409 50.5438 58.0587 50.8202 57.4307 50.8202C57.0345 50.8202 56.9314 50.9236 56.9314 51.3211V51.8219H59.9996H63.0678V51.3211C63.0678 50.8976 62.9725 50.8202 62.4507 50.8202C61.882 50.8202 61.6771 50.5878 59.8427 47.8653L57.8519 44.9104L54.9371 44.8549L52.0223 44.7992V45.3056ZM20.7381 46.2186C21.67 46.707 22.0382 48.4905 21.4407 49.6222C21.0265 50.4065 20.4947 50.6511 19.1797 50.6628C17.2909 50.6794 16.5138 49.8242 16.6941 47.9272C16.828 46.515 17.4638 46.0122 19.1155 46.0122C19.7915 46.0122 20.5217 46.105 20.7381 46.2186ZM46.267 46.5858C47.0727 47.3749 46.9608 49.7631 46.097 50.2158C45.8833 50.3278 45.0119 50.4196 44.1608 50.4196H42.6132V48.316V46.2125H44.2496C45.5732 46.2125 45.9588 46.2839 46.267 46.5858ZM56.1644 47.2857C56.4736 47.7653 56.7269 48.2159 56.7269 48.287C56.7269 48.3581 56.1746 48.4162 55.4996 48.4162C54.8246 48.4162 54.2723 48.3747 54.2723 48.3243C54.2723 48.1582 55.3918 46.4129 55.4982 46.4133C55.5552 46.4135 55.8551 46.8059 56.1644 47.2857Z" fill="#7C7C7C"/>
</svg>
