<svg width="80" height="46" viewBox="0 0 80 46" fill="none" xmlns="http://www.w3.org/2000/svg">
<path fill-rule="evenodd" clip-rule="evenodd" d="M34.4321 0.551816C18.53 2.27147 8.91186 10.3823 13.3981 18.2891C13.9534 19.2678 15.2688 20.7854 16.3004 21.6377C22.9633 27.1429 35.952 29.6539 48.0526 27.7762C55.2976 26.652 61.1074 24.1604 64.5756 20.6903C66.6829 18.5817 67.578 16.7259 67.5867 14.4477C67.5921 12.9928 67.3895 12.1276 66.7398 10.83C64.079 5.51666 55.4268 1.45141 44.697 0.473157C42.4902 0.271944 36.6029 0.316996 34.4321 0.551816ZM44.2585 2.64796C47.3402 2.90408 50.0441 3.35431 52.6631 4.04762C54.3383 4.49104 54.5633 4.59954 54.5633 4.96488C54.5633 5.31965 53.3226 6.30326 51.5668 7.34032C46.7951 10.1589 38.6696 12.9492 36.2876 12.5871C33.7147 12.1958 33.4222 10.0547 35.3816 5.95255C36.2685 4.09557 37.1424 3.167 38.4318 2.71141C39.1164 2.46949 41.7646 2.44067 44.2585 2.64796ZM30.7992 3.45629C30.9264 3.50468 31.0305 3.6097 31.0305 3.68966C31.0305 3.76963 30.5803 4.39833 30.0301 5.08657C27.2139 8.60975 24.2438 13.6754 21.747 19.2136C20.8022 21.3093 20.6549 21.5531 20.3093 21.5943C19.4255 21.6992 16.2621 18.9692 15.3563 17.32C12.8582 12.771 16.2775 8.01436 24.1607 5.07222C25.5916 4.53826 29.7767 3.38459 30.3242 3.37343C30.4584 3.37068 30.6721 3.40791 30.7992 3.45629ZM60.8683 7.59774C61.3799 7.93208 62.3317 8.73056 62.9833 9.3723C64.5542 10.9191 65.2331 12.2507 65.3398 13.9937C65.3987 14.958 65.3534 15.3458 65.0922 16.1084C63.8213 19.82 59.1027 22.9244 51.9625 24.7466C49.7116 25.3211 49.0089 25.3757 49.0089 24.9764C49.0089 24.8299 49.4473 24.1618 49.9831 23.4915C52.6824 20.1148 55.5394 15.2314 58.0843 9.64435C58.6585 8.38362 59.1945 7.27064 59.2755 7.17098C59.5243 6.8646 59.9005 6.96528 60.8683 7.59774ZM44.7682 16.3823C46.381 17.1447 46.3316 19.1844 44.6143 22.7329C43.7659 24.4857 42.8311 25.5148 41.7579 25.8773C40.4493 26.3192 35.6669 26.1479 31.71 25.5173C29.5732 25.1768 25.9722 24.3113 25.6748 24.0666C25.1273 23.6163 25.6932 23.012 28.0341 21.5473C31.6575 19.2804 38.8343 16.5335 42.3584 16.0649C43.066 15.9707 44.2189 16.1226 44.7682 16.3823ZM0.774048 39.7286V45.3782H2.08589H3.39759L3.43793 43.0967L3.47812 40.8151H5.88987H8.30161L8.34181 43.0967L8.38215 45.3782H9.69385H11.0057V39.7286V34.079H9.69019H8.3747V36.2554V38.4318L5.92641 38.3921L3.47812 38.3524L3.43764 36.2157L3.3973 34.079H2.0856H0.774048V39.7286ZM12.2699 34.2601C12.3314 34.3598 13.3878 36.0319 14.6172 37.9761L16.8523 41.511V43.4446V45.3782H18.1678H19.4833V43.4174V41.4565L21.6682 38.0164C22.87 36.1243 23.8965 34.4644 23.9494 34.3276C24.0367 34.1025 23.9011 34.079 22.511 34.079H20.9763L19.6102 36.252C18.8588 37.4471 18.2044 38.4249 18.1559 38.4249C18.1075 38.4249 17.449 37.4472 16.6927 36.2524L15.3176 34.0798L13.7377 34.0795C12.5113 34.0792 12.1829 34.1196 12.2699 34.2601ZM25.33 39.7366V45.3942L29.6784 45.35C34.6089 45.2999 34.7175 45.2764 35.2724 44.1405C35.5425 43.5876 35.5616 43.2354 35.5616 38.8137V34.079H34.2524H32.9431L32.9004 38.3578C32.8641 41.9718 32.8235 42.658 32.6383 42.7739C32.5177 42.8494 31.4159 42.9121 30.19 42.9134L27.961 42.9156V38.4973V34.079H26.6455H25.33V39.7366ZM38.0465 39.7286V45.3782H39.362H40.6775V40.96V36.5417H42.9869C44.5883 36.5417 45.3501 36.595 45.4717 36.7155C45.6002 36.8428 45.6471 38.0256 45.6471 41.1338V45.3782H46.9626H48.2781V40.4744C48.2781 33.6342 48.6929 34.0796 42.3218 34.0793L38.0465 34.079V39.7286ZM50.9091 39.7288V45.3942L55.2575 45.35C61.4816 45.2868 61.1407 45.6104 61.1407 39.7624C61.1407 35.3748 61.0938 35.0999 60.2437 34.499C59.7546 34.1532 59.7296 34.1512 55.3306 34.1074L50.9091 34.0634V39.7288ZM64.9411 34.2414C64.2702 34.5058 63.7909 35.0997 63.6226 35.8755C63.5202 36.3474 63.4787 38.1831 63.5075 40.96L63.5525 45.3058H64.868H66.1835L66.2247 43.6037L66.2658 41.9016H68.6683H71.0708L71.1119 43.6037L71.1531 45.3058L72.5052 45.3475L73.8572 45.3891V39.7341V34.079L69.5818 34.0882C67.1153 34.0935 65.1518 34.1583 64.9411 34.2414ZM76.4882 39.7286V45.3782H77.8037H79.1192V39.7286V34.079H77.8037H76.4882V39.7286ZM58.3585 36.8218C58.447 36.9861 58.5097 38.2115 58.5097 39.7812C58.5097 42.0237 58.4723 42.4974 58.2801 42.688C58.0911 42.8752 57.6504 42.9156 55.7953 42.9156H53.5401V39.7286V36.5417H55.8736C58.0311 36.5417 58.2186 36.5628 58.3585 36.8218ZM71.08 37.9903V39.4389H68.6683H66.2566V38.0747C66.2566 37.1191 66.3112 36.6889 66.4393 36.6376C66.5398 36.5974 67.625 36.5594 68.851 36.5531L71.08 36.5417V37.9903Z" fill="white"/>
</svg>
