<svg width="40" height="47" viewBox="0 0 40 47" fill="none" xmlns="http://www.w3.org/2000/svg">
<path opacity="0.4" fill-rule="evenodd" clip-rule="evenodd" d="M19.1408 0.491045C18.3372 1.32031 16.0084 3.36385 14.7758 4.32141C12.25 6.28367 9.77309 7.83952 6.62793 9.43963C4.71585 10.4123 0.934897 12.0236 0.564277 12.0236C0.489768 12.0236 0.431388 12.0643 0.434397 12.1138C0.437527 12.1633 2.31976 13.5132 4.61727 15.1133C9.47205 18.4946 22.2154 27.4163 23.9321 28.6358C25.0273 29.4136 25.0972 29.4881 24.9673 29.7345C24.6057 30.4206 24.2156 30.3356 22.6539 29.2308C21.0182 28.0736 15.5757 24.4898 14.5504 23.8949C11.2207 21.9628 6.81162 22.2064 2.1445 24.5804C1.56504 24.8751 0.889036 25.2416 0.642277 25.3947L0.193536 25.6732L5.8182 29.663C8.91172 31.8574 13.2602 34.9446 15.4814 36.5234L19.5202 39.394L20.9538 38.0205C25.5419 33.6248 31.8547 29.7142 37.7893 27.5916L38.8581 27.2093L38.4513 26.9078C38.2277 26.7419 35.1467 24.5781 31.6048 22.0994C28.0629 19.6208 22.7546 15.9026 19.8085 13.8368C16.8624 11.7711 14.3708 10.034 14.2715 9.97636C14.1112 9.88354 14.1117 9.83376 14.2752 9.53485C14.603 8.93596 15.077 9.0087 16.2282 9.83424C17.9021 11.0346 23.2857 14.5942 24.6835 15.4247C26.6181 16.5743 29.2902 16.9847 31.891 16.5316C33.8693 16.187 36.4439 15.2087 38.24 14.1187C38.942 13.6927 38.9613 13.668 38.7479 13.4675C38.6259 13.353 34.9511 10.7269 30.5816 7.63175C26.2122 4.53663 22.0052 1.55333 21.2328 1.00217C20.4604 0.451006 19.7808 0 19.7225 0C19.6643 0 19.4025 0.220994 19.1408 0.491045ZM2.51741 40.8801C1.71742 40.9917 0.980999 41.3114 0.629277 41.6999C0.33786 42.0218 0.244332 42.7868 0.428499 43.3438C0.653592 44.0253 1.19658 44.2118 3.93982 44.5502C4.56503 44.6272 4.81949 44.8392 4.70791 45.1901C4.56262 45.6477 3.56415 45.7064 3.13948 45.2822C2.87563 45.0186 2.73636 44.9911 1.45983 44.9507C0.242406 44.9121 0.067749 44.9308 0.067749 45.1C0.067749 45.4731 0.615073 46.0993 1.20778 46.4041C1.73861 46.6772 1.97815 46.7165 3.33316 46.7536C5.11632 46.8024 5.96229 46.6181 6.62589 46.0362C6.85736 45.8331 7.10797 45.4617 7.18368 45.2094C7.3002 44.8206 7.28684 44.6814 7.09485 44.2888C6.78213 43.6491 6.11215 43.3168 4.46006 42.9817C2.68075 42.6209 2.57398 42.5838 2.6202 42.3438C2.7307 41.771 3.97172 41.8035 4.35582 42.3893C4.53939 42.6691 4.60908 42.6839 5.739 42.6839C7.04731 42.6839 7.10183 42.6453 6.75071 41.9671C6.51707 41.5159 6.0392 41.1493 5.49874 41.0067C4.82551 40.829 3.33689 40.7657 2.51741 40.8801ZM7.65108 43.2207V45.5611L8.03085 45.9932C8.74633 46.8072 9.19002 46.9523 10.9646 46.9523C12.4023 46.9523 12.5817 46.9271 13.1189 46.6509C14.1785 46.106 14.2059 46.0245 14.2483 43.2766L14.2855 40.8803H13.1951H12.1048V42.9297C12.1048 44.9455 12.1 44.9841 11.8093 45.2744C11.3646 45.7186 10.2377 45.6512 9.90983 45.1607C9.8612 45.088 9.82064 44.0952 9.81955 42.9544L9.81775 40.8803H8.73442H7.65108V43.2207ZM21.996 43.1902C22.0415 45.8742 22.079 45.9801 23.2 46.5939C23.7627 46.9019 23.9897 46.9504 25.059 46.9916C26.4732 47.046 27.3924 46.838 28.002 46.3256C28.6434 45.7864 28.7159 45.4538 28.7159 43.0484V40.8803H27.6445H26.5731L26.5311 42.9952C26.4902 45.0485 26.4807 45.1167 26.2049 45.3398C25.8616 45.6174 24.9027 45.6519 24.556 45.3992C24.3442 45.2447 24.3167 45.0291 24.2622 43.0846L24.202 40.9404L23.0793 40.9057L21.9566 40.8711L21.996 43.1902ZM14.7529 41.722V42.4434H16.3177C17.1784 42.4434 17.8824 42.4839 17.8823 42.5336C17.8822 42.5832 17.178 43.2609 16.3175 44.0396L14.7529 45.4556V46.1738V46.8921H18.1233H21.4937V46.0538V45.2156L19.8872 45.1821L18.2807 45.1487L19.8867 43.7059L21.4928 42.263L21.4932 41.6318L21.4937 41.0006H18.1233H14.7529V41.722ZM29.2253 43.9163L29.2576 46.832L30.3663 46.8665L31.4749 46.901L31.5098 45.8604L31.5446 44.8197L32.646 45.8559L33.7474 46.8921L35.1738 46.8865L36.6002 46.8807L34.9907 45.3458L33.3812 43.8107L34.1458 43.097C34.5664 42.7044 35.2365 42.0732 35.6349 41.6942L36.3594 41.0051L35.0353 41.0072L33.7113 41.0093L32.6279 42.0238C32.0321 42.5817 31.504 43.0395 31.4543 43.0413C31.4046 43.0431 31.364 42.5847 31.364 42.0226V41.0006H30.2785H29.193L29.2253 43.9163ZM37.0215 43.9463V46.8921H38.0446H39.0677V43.9463V41.0006H38.0446H37.0215V43.9463Z" fill="white"/>
</svg>
