<svg width="78" height="41" viewBox="0 0 78 41" fill="none" xmlns="http://www.w3.org/2000/svg">
<path opacity="0.4" fill-rule="evenodd" clip-rule="evenodd" d="M0.067749 12.7558V25.5117H11.588H23.1083V19.2686V13.0255L27.8279 13.1005C31.574 13.1599 32.9462 13.2393 34.4799 13.4855C39.4739 14.287 43.9099 15.7204 46.5002 17.3697C47.7419 18.1602 48.9965 19.4446 49.3345 20.271C49.8917 21.6331 49.3912 23.1649 47.9143 24.6185L47.0068 25.5117H62.0373H77.0677L77.066 25.17C77.0634 24.6818 76.7193 23.427 76.3612 22.5999C75.1815 19.8756 72.0388 16.8994 68.5457 15.1987C66.855 14.3755 64.638 13.6114 62.5571 13.1349C61.5855 12.9122 60.7742 12.7135 60.7542 12.693C60.7341 12.6725 61.4365 12.5032 62.315 12.3165C65.628 11.6127 68.9593 10.2168 71.3981 8.51027C72.9435 7.42906 74.9865 5.32754 75.761 4.02264C76.3432 3.04166 77.0677 1.02806 77.0677 0.390875V0H61.961H46.8542L47.481 0.694586C48.3954 1.70792 48.7215 2.55785 48.6481 3.73625C48.5984 4.5309 48.4993 4.82626 48.0746 5.4434C46.6987 7.44273 43.6426 9.15839 39.0057 10.5348C34.6675 11.8227 32.3178 12.142 27.159 12.1457L23.1083 12.1484V6.07421V0H11.588H0.067749V12.7558ZM63.838 34.542V40.8491H65.5475H67.2569V39.5887C67.2569 38.3759 67.3875 37.9626 67.7698 37.9646C67.8557 37.965 68.3161 38.6142 68.7928 39.4072L69.6598 40.8491H71.5144C72.9581 40.8491 73.3445 40.807 73.2583 40.6592C73.1974 40.5549 72.4577 39.3308 71.6144 37.9392C70.7711 36.5476 70.0813 35.3607 70.0813 35.3016C70.0813 35.2426 70.6833 34.5272 71.4191 33.7119C72.1549 32.8965 72.7569 32.1872 72.7569 32.1354C72.7569 32.0838 71.969 32.0415 71.0059 32.0415H69.2546L68.293 33.21L67.3313 34.3787L67.2569 31.3498L67.1826 28.321L65.5103 28.278L63.838 28.235V34.542ZM0.067749 34.623V40.8491H1.77721H3.48667V38.9946V37.1401L4.11188 36.4893L4.7371 35.8384L6.33745 38.3437L7.93795 40.8491H10.1048C11.8889 40.8491 12.2507 40.8126 12.1529 40.643C12.0875 40.5295 10.9722 38.8239 9.67447 36.8524L7.31497 33.268L7.96501 32.5119C8.32251 32.0961 9.3082 31.0002 10.1552 30.0764L11.6955 28.3969H9.38847H7.08144L5.28413 30.3179L3.48667 32.2387V30.3179V28.3969H1.77721H0.067749V34.623ZM73.7975 29.5358V30.6748H75.4326H77.0677V29.5358V28.3969H75.4326H73.7975V29.5358ZM47.7248 31.7535C46.5963 31.9218 45.6443 32.3971 45.2208 33.0036C44.9531 33.3869 44.8853 33.6888 44.8853 34.4968C44.8853 35.3659 44.9381 35.5681 45.2569 35.9221C45.7784 36.501 46.598 36.8402 48.198 37.1391C49.7064 37.4209 50.311 37.767 50.311 38.3491C50.311 38.7919 49.8677 39.0617 49.1071 39.0821C48.5042 39.0982 47.9906 38.7415 47.7706 38.1536C47.6503 37.8323 47.5582 37.8119 46.2269 37.8119H44.811V38.2353C44.811 39.0698 45.4151 39.9777 46.2975 40.4694C47.0871 40.9093 47.181 40.925 49.0475 40.925C50.8708 40.925 51.0285 40.9005 51.8422 40.4925C53.1975 39.8126 53.7891 38.5711 53.4264 37.1688C53.0877 35.8602 52.1896 35.2949 49.7531 34.8573C47.9673 34.5366 47.5799 34.237 48.2045 33.6595C48.6448 33.2523 49.3763 33.3412 49.8879 33.8637C50.3241 34.3094 50.3664 34.3193 51.825 34.3193H53.3162L53.2141 33.9017C52.9051 32.6363 51.98 31.984 50.1507 31.7415C48.9021 31.576 48.9168 31.5759 47.7248 31.7535ZM14.7444 31.903C13.8997 32.1063 13.059 32.5924 12.7381 33.063C12.4673 33.4604 12.1083 34.3623 12.1083 34.6456C12.1083 34.7167 12.8107 34.7748 13.6691 34.7748C14.8662 34.7748 15.2299 34.7279 15.2299 34.5735C15.2299 34.1439 15.9482 33.6657 16.6159 33.6505C17.3617 33.6338 17.7569 33.897 17.7569 34.4102C17.7569 34.9316 17.3108 35.1555 15.2439 35.6719C12.4316 36.3743 11.6672 37.0811 11.8658 38.7946C11.975 39.7349 12.306 40.2155 13.1576 40.6696C13.7376 40.9789 13.9801 41.0147 15.1556 40.964C16.1047 40.923 16.6984 40.8123 17.1989 40.5829C17.8937 40.2641 17.9066 40.2637 18.0588 40.5542C18.1947 40.8134 18.3792 40.8491 19.5831 40.8492L20.9529 40.8494L20.9126 37.5464C20.868 33.8839 20.7476 33.2504 19.969 32.581C19.7256 32.3719 19.1832 32.0966 18.7634 31.9693C17.9289 31.7162 15.6754 31.679 14.7444 31.903ZM20.6177 31.9225C20.6574 32.0298 21.3434 34.0821 22.1422 36.4832L23.5947 40.8491H25.3339H27.073L27.3293 39.9C27.4702 39.378 27.7611 38.3724 27.9756 37.6656L28.3658 36.3804L28.6988 37.5137C28.882 38.1371 29.1778 39.1448 29.3563 39.753L29.6806 40.8586L31.3204 40.816L32.96 40.7731L34.3442 36.5512C35.1054 34.2291 35.7703 32.1939 35.8218 32.0285C35.9117 31.739 35.8509 31.7295 34.1758 31.7708L32.4364 31.8137L31.8479 33.8637C31.5243 34.9912 31.2089 35.9677 31.1469 36.0336C31.0851 36.0996 30.7805 35.2796 30.4703 34.2113C30.16 33.1432 29.8459 32.1497 29.7724 32.0035C29.6592 31.7792 29.4223 31.7377 28.2542 31.7377H26.87L26.2366 33.9017C25.8883 35.0919 25.5577 36.151 25.502 36.2553C25.4462 36.3595 25.0991 35.4028 24.7305 34.1293L24.0604 31.8137L22.3031 31.7707C20.9218 31.737 20.5612 31.7695 20.6177 31.9225ZM38.0643 31.8979C36.7548 32.232 35.8496 33.0896 35.5966 34.2356L35.4775 34.7748L36.9854 34.7739L38.4934 34.7729L38.7415 34.3275C39.2059 33.4938 40.9298 33.3971 41.1764 34.191C41.3766 34.8354 40.7282 35.211 38.619 35.6723C36.6841 36.0955 35.7963 36.5882 35.4253 37.4449C34.8673 38.7336 35.3794 40.1789 36.5872 40.7247C37.5297 41.1506 39.6707 41.0691 40.6093 40.5716C41.2373 40.2386 41.2391 40.2386 41.4254 40.5435C41.5911 40.8144 41.7704 40.8491 43.0064 40.8491H44.4006L44.3309 37.4703C44.2586 33.9668 44.181 33.4897 43.5747 32.824C42.8795 32.0603 42.1851 31.8383 40.3515 31.7929C39.4113 31.7696 38.3821 31.8169 38.0643 31.8979ZM56.9606 31.903C55.7297 32.1992 54.8116 32.9257 54.5788 33.7878C54.5337 33.9548 54.4535 34.2452 54.4006 34.4332C54.3052 34.7721 54.3169 34.7748 55.8754 34.7748C57.1369 34.7748 57.4461 34.7322 57.4461 34.5581C57.4461 34.4388 57.6165 34.2045 57.8247 34.0371C58.7019 33.3322 59.8988 33.54 59.8988 34.3972C59.8988 34.9785 59.3781 35.2515 57.4582 35.677C55.0258 36.2163 54.1883 36.8516 54.0682 38.249C53.9808 39.2646 54.4855 40.2067 55.365 40.6696C55.9519 40.9786 56.1979 41.0146 57.3718 40.964C58.3209 40.923 58.9146 40.8123 59.4151 40.5829C60.1099 40.2641 60.1228 40.2637 60.2751 40.5542C60.4109 40.8134 60.5954 40.8491 61.7993 40.8492H63.1691L63.1276 37.5464C63.0817 33.8842 62.961 33.2478 62.1852 32.581C61.9419 32.3719 61.3994 32.0966 60.9797 31.9693C60.1451 31.7162 57.8916 31.679 56.9606 31.903ZM73.7975 36.4453V40.8491H75.4326H77.0677V36.4453V32.0415H75.4326H73.7975V36.4453ZM17.6083 37.444C17.6083 38.0097 17.5274 38.2217 17.1738 38.5829C16.8221 38.9422 16.6116 39.0268 16.0695 39.0268C15.3954 39.0268 14.9326 38.751 14.9326 38.3494C14.9326 37.7983 15.5835 37.4065 17.5711 36.761C17.5915 36.7544 17.6083 37.0618 17.6083 37.444ZM41.0246 37.4633C40.8772 38.2663 40.6527 38.6725 40.2539 38.8582C39.7748 39.0812 38.8215 39.0734 38.5975 38.8446C38.3528 38.5946 38.3729 37.8883 38.6309 37.6695C38.9067 37.4358 40.8345 36.7839 40.9967 36.8695C41.0653 36.9058 41.0778 37.1731 41.0246 37.4633ZM59.8245 37.444C59.8245 38.0127 59.7439 38.2212 59.3817 38.5914C58.9973 38.9841 58.8479 39.0376 58.2467 38.9973C57.3876 38.9396 57.0546 38.558 57.3436 37.9624C57.4772 37.6868 57.8289 37.4733 58.6386 37.1761C59.25 36.9517 59.767 36.7637 59.7873 36.7585C59.8077 36.7532 59.8245 37.0618 59.8245 37.444Z" fill="white"/>
</svg>
