<svg width="7" height="15" viewBox="0 0 7 15" fill="none" xmlns="http://www.w3.org/2000/svg">
<path d="M6.33284 0.970512L4.75444 0.967773C2.98116 0.967773 1.8352 2.23909 1.8352 4.20678V5.70019H0.248188C0.111051 5.70019 0 5.8204 0 5.96869V8.13246C0 8.28074 0.111178 8.40082 0.248188 8.40082H1.8352V13.8607C1.8352 14.009 1.94625 14.1291 2.08338 14.1291H4.15398C4.29111 14.1291 4.40217 14.0088 4.40217 13.8607V8.40082H6.25775C6.39488 8.40082 6.50594 8.28074 6.50594 8.13246L6.5067 5.96869C6.5067 5.89749 6.48048 5.8293 6.43401 5.77892C6.38754 5.72853 6.32423 5.70019 6.25838 5.70019H4.40217V4.43421C4.40217 3.82573 4.53626 3.51684 5.2693 3.51684L6.33258 3.51643C6.46959 3.51643 6.58065 3.39621 6.58065 3.24806V1.23888C6.58065 1.09087 6.46972 0.970786 6.33284 0.970512Z" fill="white"/>
</svg>
