<svg width="19" height="17" viewBox="0 0 19 17" fill="none" xmlns="http://www.w3.org/2000/svg">
<path d="M8.8672 14.9896L8.84532 14.9684L8.82218 14.9485C6.33498 12.8087 4.35956 11.0845 2.99627 9.47136C1.64352 7.8707 1 6.50054 1 5.08152C1 2.79574 2.80585 1 5.225 1C6.55135 1 7.89095 1.61432 8.74557 2.5966L9.5 3.46371L10.2544 2.5966C11.1091 1.61432 12.4487 1 13.775 1C16.1941 1 18 2.79574 18 5.08152C18 6.50054 17.3565 7.8707 16.0037 9.47136C14.6404 11.0845 12.665 12.8087 10.1778 14.9485L10.1547 14.9684L10.1328 14.9896L9.5 15.6051L8.8672 14.9896Z" stroke="#2C2C2C" stroke-width="2"/>
</svg>
