<svg width="22" height="15" viewBox="0 0 22 15" fill="none" xmlns="http://www.w3.org/2000/svg">
<path d="M12.6335 8.58948e-05V1.28922H14.657V3.01523H12.7065L11.9776 4.20523H5.81686C5.03496 3.45178 3.97435 3.01523 2.87867 3.01523H0V7.46767H2.19354L3.04411 8.53954C1.73947 8.93621 0.787143 10.1501 0.787143 11.5827C0.787143 13.3364 2.21382 14.763 3.96747 14.763C5.43029 14.763 6.68079 13.7641 7.04235 12.399H14.5641L14.5653 11.7556C14.5674 10.6692 14.9715 9.67501 15.6362 8.91395L16.289 9.65937C15.8818 10.1939 15.6393 10.8604 15.6393 11.5827C15.6393 13.3364 17.066 14.763 18.8196 14.763C20.5733 14.763 22 13.3364 22 11.5827C22 9.82906 20.5733 8.40238 18.8196 8.40238C18.2534 8.40238 17.7217 8.55179 17.2607 8.81224L16.6181 8.07851C17.2826 7.6647 18.066 7.42518 18.904 7.42518C19.0602 7.42518 19.2194 7.43386 19.3772 7.45096L20.0912 7.52835V3.85368C20.0912 1.72877 18.3625 0 16.2375 0L12.6335 8.58948e-05ZM11.188 5.49436L10.5168 6.59021H7.71579L6.86909 5.49436H11.188ZM3.96752 13.4739C2.92469 13.4739 2.07632 12.6256 2.07632 11.5828C2.07632 10.5429 2.91984 9.69667 3.95845 9.69177L5.80749 12.0219C5.60974 12.8571 4.85452 13.4739 3.96752 13.4739ZM13.3141 11.1099H6.72948L2.81628 6.17854H1.28913V4.30436H2.87872C3.78158 4.30436 4.65015 4.73089 5.20216 5.44537L7.08274 7.87938H11.2389L13.4287 4.30436H15.9462V1.28922H16.2376C17.6161 1.28922 18.7434 2.38253 18.7994 3.7475H17.6079V5.03663H18.8021V6.13703C15.9682 6.1877 13.6357 8.34755 13.3141 11.1099ZM18.8197 13.4739C17.7769 13.4739 16.9285 12.6256 16.9285 11.5828C16.9285 11.2491 17.0157 10.9355 17.168 10.6631L18.4191 12.0918L19.3889 11.2425L18.1413 9.81785C18.352 9.73659 18.5806 9.69156 18.8196 9.69156C19.8625 9.69156 20.7108 10.5399 20.7108 11.5828C20.7108 12.6256 19.8625 13.4739 18.8197 13.4739Z" fill="white"/>
</svg>
