<svg width="30" height="14" viewBox="0 0 30 14" fill="none" xmlns="http://www.w3.org/2000/svg">
<path d="M27.9656 3.32756L22.2497 1.03678C21.2981 0.655156 20.2957 0.461914 19.27 0.461914H15.7663C14.5111 0.461914 13.2558 0.7625 12.1368 1.33186L6.95766 3.96559L3.24234 4.50729C2.34176 4.6386 1.5184 5.09012 0.922734 5.77906C0.327598 6.46748 0 7.34785 0 8.25764V10.4503C0 10.789 0.274863 11.0638 0.613477 11.0638H3.24539C3.37729 11.6607 3.67975 12.2067 4.12635 12.6423C4.7202 13.2196 5.50365 13.538 6.33246 13.538C7.16068 13.538 7.94414 13.2196 8.53799 12.6423C8.98523 12.2061 9.28828 11.6588 9.41959 11.0638H20.4153C20.5472 11.6607 20.8496 12.2067 21.2969 12.6417C21.8902 13.2196 22.6736 13.538 23.5018 13.538C24.3306 13.538 25.114 13.2196 25.7073 12.6423C26.1546 12.2067 26.457 11.6607 26.5889 11.0638H29.3865C29.7251 11.0638 29.9999 10.7889 29.9999 10.4503V6.33494C30 5.00363 29.2013 3.82332 27.9656 3.32756ZM21.7932 2.17543L26.2055 3.94414H22.8761L21.4104 2.03557C21.5387 2.07852 21.6663 2.12516 21.7932 2.17543ZM16.3417 1.68893H19.27C19.3816 1.68893 19.4927 1.69139 19.6031 1.69689L21.3288 3.94414H16.3417V1.68893ZM12.6926 2.42574C13.4466 2.0423 14.273 1.80307 15.1147 1.72145V3.94414H9.70676L12.6926 2.42574ZM3.32455 5.73799C3.07242 6.59135 2.31967 7.23184 1.40801 7.31897C1.72758 6.51717 2.44354 5.90059 3.32455 5.73799ZM6.33188 12.311C5.26318 12.311 4.39693 11.4448 4.39693 10.3761C4.39693 9.30741 5.26318 8.44116 6.33188 8.44116C7.40057 8.44116 8.26682 9.30741 8.26682 10.3761C8.26688 11.4448 7.40063 12.311 6.33188 12.311ZM23.5025 12.311C22.4338 12.311 21.5669 11.4448 21.5669 10.3761C21.5669 9.30741 22.4338 8.44116 23.5025 8.44116C24.5712 8.44116 25.4374 9.30741 25.4374 10.3761C25.4374 11.4448 24.5712 12.311 23.5025 12.311ZM28.773 9.8368H26.6171C26.3601 8.34969 25.062 7.21408 23.5018 7.21408C21.9423 7.21408 20.6442 8.34969 20.3871 9.8368H9.44783C9.19078 8.34969 7.89199 7.21408 6.33252 7.21408C4.7724 7.21408 3.47426 8.34969 3.21721 9.8368H1.22701V8.55582C2.96508 8.53989 4.39939 7.2319 4.6135 5.54721L7.19326 5.17115H22.5737C22.5737 5.17115 22.5737 5.17115 22.5742 5.17115C22.5742 5.17115 22.5742 5.17115 22.5748 5.17115H26.457V5.9699C26.457 7.09262 27.3705 8.0061 28.4926 8.0061H28.773V9.8368ZM28.773 6.77914H28.4926C28.0472 6.77914 27.684 6.41598 27.684 5.96996V5.17121H28.4037C28.6386 5.50373 28.773 5.90615 28.773 6.335V6.77914Z" fill="#5C5C5C"/>
</svg>
