<svg width="30" height="26" viewBox="0 0 30 26" fill="none" xmlns="http://www.w3.org/2000/svg">
<path d="M1 1L5.87911 1.69702C6.72834 1.81833 7.40562 2.46772 7.56253 3.3111L7.96977 5.5M7.96977 5.5L9.54574 15.511C9.69884 16.4835 10.5369 17.2 11.5214 17.2H23.7384C24.6562 17.2 25.4561 16.5754 25.6787 15.6851L28 6.4L7.96977 5.5Z" stroke="#2C2C2C" stroke-width="2"/>
<circle cx="12.7" cy="22.6004" r="1.7" stroke="#2C2C2C" stroke-width="2"/>
<circle cx="22.6" cy="22.6004" r="1.7" stroke="#2C2C2C" stroke-width="2"/>
<path d="M1 1L5.87911 1.69702C6.72834 1.81833 7.40562 2.46772 7.56253 3.3111L7.96977 5.5M7.96977 5.5L9.54574 15.511C9.69884 16.4835 10.5369 17.2 11.5214 17.2H23.7384C24.6562 17.2 25.4561 16.5754 25.6787 15.6851L28 6.4L7.96977 5.5Z" stroke="#2C2C2C" stroke-width="2"/>
</svg>
