<svg width="12" height="12" viewBox="0 0 12 12" fill="none" xmlns="http://www.w3.org/2000/svg">
<path d="M2.08519 0.0644531H10.2375C11.0117 0.0644531 11.6452 0.637643 11.6452 1.47209V9.62456C11.6452 10.459 11.0117 11.0322 10.2375 11.0322H2.08519C1.31076 11.0322 0.677429 10.459 0.677429 9.62456V1.47209C0.677429 0.637643 1.31076 0.0644531 2.08519 0.0644531ZM8.66703 1.28302C8.39541 1.28302 8.17345 1.50508 8.17345 1.77682V2.95867C8.17345 3.23028 8.39541 3.45247 8.66703 3.45247H9.90667C10.1783 3.45247 10.4005 3.23028 10.4005 2.95867V1.77682C10.4005 1.50508 10.1783 1.28302 9.90667 1.28302H8.66703ZM10.4057 4.70267H9.44034C9.53167 5.00087 9.5811 5.31674 9.5811 5.64354C9.5811 7.46783 8.05453 8.94664 6.17177 8.94664C4.28912 8.94664 2.76278 7.46783 2.76278 5.64354C2.76278 5.31651 2.8121 5.00075 2.90354 4.70267H1.89623V9.3356C1.89623 9.57535 2.0924 9.77163 2.33226 9.77163H9.96984C10.2097 9.77163 10.4059 9.57546 10.4059 9.3356V4.70267H10.4057ZM6.17166 3.39019C4.95522 3.39019 3.96897 4.3457 3.96897 5.52451C3.96897 6.70332 4.95522 7.65882 6.17166 7.65882C7.38821 7.65882 8.37458 6.70332 8.37458 5.52451C8.37458 4.3457 7.38832 3.39019 6.17166 3.39019Z" fill="white"/>
</svg>
