<svg width="24" height="22" viewBox="0 0 24 22" fill="none" xmlns="http://www.w3.org/2000/svg">
<g clip-path="url(#clip0)">
<path d="M23.3306 12.0114C23.3306 11.5787 23.2294 11.1654 23.0466 10.7872C23.0278 10.6911 23.0062 10.5951 22.9793 10.4978L20.9996 5.7618L20.9862 5.71919C20.2935 3.72833 19.3079 1.88574 16.8087 1.88574H7.25347C4.6927 1.88574 3.78781 3.77398 3.07995 5.70813L1.00913 10.4556C0.709756 10.9186 0.539551 11.4483 0.539551 12.0114V13.4851C0.539551 13.7129 0.567452 13.9358 0.620504 14.1505C0.568928 14.2802 0.539551 14.42 0.539551 14.5673V18.9504C0.539551 19.5931 1.07934 20.1143 1.74519 20.1143H4.2471C4.9126 20.1143 5.45239 19.5931 5.45239 18.9504V16.7585H18.5607V18.9504C18.5607 19.5931 19.1006 20.1143 19.7665 20.1143H22.1251C22.7912 20.1143 23.3309 19.5931 23.3309 18.9504V14.5668C23.3309 14.42 23.3012 14.2796 23.2501 14.1503C23.3029 13.9353 23.3309 13.7127 23.3309 13.4849V12.0115H23.3306V12.0114ZM4.54923 6.18362C5.33753 4.03677 5.97146 3.38141 7.25347 3.38141H16.8082C18.0808 3.38141 18.7894 4.11235 19.5095 6.17438L20.9542 9.00038C20.4824 8.83176 19.9633 8.73818 19.4179 8.73818H4.45224C3.96117 8.73818 3.4919 8.81441 3.05893 8.95236L4.54923 6.18362ZM5.79025 14.0448H3.15047C2.67519 14.0448 2.28972 13.6724 2.28972 13.2136C2.28972 12.7547 2.67519 12.3826 3.15047 12.3826H5.79025C6.26574 12.3826 6.65121 12.7547 6.65121 13.2136C6.65121 13.6724 6.26548 14.0448 5.79025 14.0448ZM15.1154 13.8783H8.97517C8.67412 13.8783 8.43019 13.6427 8.43019 13.3523C8.43019 13.0613 8.67412 12.8258 8.97517 12.8258H15.1154C15.4168 12.8258 15.6607 13.0613 15.6607 13.3523C15.6607 13.6427 15.4168 13.8783 15.1154 13.8783ZM20.6532 14.0448H18.0135C17.5378 14.0448 17.1525 13.6724 17.1525 13.2136C17.1525 12.7547 17.5381 12.3826 18.0135 12.3826H20.6532C21.1288 12.3826 21.5144 12.7547 21.5144 13.2136C21.5144 13.6724 21.1288 14.0448 20.6532 14.0448Z" fill="#EFEFEF"/>
</g>
<defs>
<clipPath id="clip0">
<rect width="22.7914" height="22" fill="white" transform="translate(0.539551)"/>
</clipPath>
</defs>
</svg>
