<svg width="21" height="19" viewBox="0 0 21 19" fill="none" xmlns="http://www.w3.org/2000/svg">
<g clip-path="url(#clip0)">
<path d="M18.3461 4.64592C18.1854 3.12925 17.9294 1.94836 17.5243 1.4842C15.8543 -0.424286 4.15613 -0.563951 2.82793 1.4842C2.50302 1.986 2.27516 3.1627 2.12224 4.64843C1.62882 4.70446 1.24457 5.10548 1.24457 5.5964V7.45429C1.24457 7.86744 1.51575 8.21577 1.89437 8.35167C1.8047 11.278 1.87748 14.331 2.01177 15.8493C2.01177 17.0214 2.82749 16.827 2.82749 16.827H3.5921V18.0923C3.5921 18.5941 4.12797 19.0002 4.78817 19.0002C5.44924 19.0002 5.98511 18.5941 5.98511 18.0923V16.827H14.8805V18.0923C14.8805 18.5941 15.4159 19.0002 16.077 19.0002C16.7372 19.0002 17.2731 18.5941 17.2731 18.0923V16.827H17.5243C17.5243 16.827 18.4843 16.9541 18.5458 16.4021C18.5458 14.8879 18.6446 11.5322 18.5632 8.36463C18.9656 8.24295 19.2593 7.885 19.2593 7.45429V5.5964C19.2598 5.09377 18.8569 4.68607 18.3461 4.64592ZM5.6849 1.75643H14.6674V3.0682H5.6849V1.75643ZM5.81313 15.3329C5.10787 15.3329 4.53648 14.7809 4.53648 14.1001C4.53648 13.4198 5.10787 12.8682 5.81313 12.8682C6.51838 12.8682 7.09021 13.4198 7.09021 14.1001C7.09021 14.7809 6.51882 15.3329 5.81313 15.3329ZM14.6193 15.3329C13.9145 15.3329 13.3418 14.7809 13.3418 14.1001C13.3418 13.4198 13.914 12.8682 14.6193 12.8682C15.3245 12.8682 15.8959 13.4198 15.8959 14.1001C15.8964 14.7809 15.3245 15.3329 14.6193 15.3329ZM16.2425 9.93859H4.10977V3.7958H16.2425V9.93859Z" fill="#EFEFEF"/>
</g>
<defs>
<clipPath id="clip0">
<rect width="19.6835" height="19" fill="white" transform="translate(0.410095)"/>
</clipPath>
</defs>
</svg>
