<svg width="15" height="15" viewBox="0 0 15 15" fill="none" xmlns="http://www.w3.org/2000/svg">
<path fill-rule="evenodd" clip-rule="evenodd" d="M6.32554 0.982031C4.94188 1.29786 3.70916 2.01825 2.77978 3.05438C2.1901 3.7117 1.48486 5.1036 1.31409 5.94722C1.04943 7.25467 1.27336 9.02761 1.84584 10.1573L2.09281 10.6447L1.52179 12.3289C1.20766 13.2552 0.958452 14.0217 0.967977 14.0321C0.977502 14.0425 1.77139 13.7985 2.73206 13.49L4.47884 12.929L5.12208 13.193C6.02113 13.562 6.62364 13.673 7.72864 13.673C11.1575 13.673 13.9194 11.0478 14.1185 7.59927C14.2853 4.71178 12.4496 2.08132 9.6322 1.17085C8.67765 0.862305 7.21565 0.778828 6.32554 0.982031ZM9.1022 2.06937C11.4781 2.76761 13.0827 4.8557 13.0794 7.24505C13.0774 8.76931 12.575 9.99766 11.5199 11.058C9.79976 12.7869 7.10504 13.1847 5.02614 12.0165L4.65914 11.8102L3.66338 12.1195C3.11569 12.2896 2.65032 12.4117 2.62932 12.3906C2.60833 12.3696 2.74324 11.9213 2.92917 11.3944C3.22241 10.5634 3.24923 10.4159 3.13114 10.2812C2.68336 9.77055 2.1938 8.19245 2.19623 7.26789C2.20245 4.92188 3.92998 2.6956 6.23495 2.06315C6.91658 1.87618 8.45595 1.87948 9.1022 2.06937ZM5.08747 4.53549C4.46455 5.02538 4.35327 6.00504 4.81552 6.9299C5.22695 7.75301 6.14962 8.80381 6.92358 9.33062C7.68209 9.84674 8.82898 10.2717 9.46386 10.2717C10.2854 10.2717 11.0037 9.61506 10.9241 8.93675C10.8982 8.71557 10.7806 8.62684 10.1271 8.33511L9.36054 7.99294L8.99616 8.40353C8.79574 8.62927 8.55023 8.81362 8.4506 8.81314C7.92877 8.81051 6.17975 7.31599 6.17975 6.87276C6.17975 6.78529 6.29104 6.56324 6.42701 6.37908C6.70965 5.99639 6.69838 5.88911 6.27772 4.96153C6.01277 4.37729 5.97953 4.34376 5.66442 4.34376C5.47995 4.34376 5.22238 4.42937 5.08747 4.53549Z" fill="white"/>
</svg>
