<svg width="19" height="19" viewBox="0 0 19 19" fill="none" xmlns="http://www.w3.org/2000/svg">
<g clip-path="url(#clip0)">
<path d="M18.0037 14.9695C17.9825 14.9194 17.9627 14.8778 17.9443 14.8444C17.6398 14.2437 17.058 13.5064 16.1992 12.6323L16.181 12.6123L16.1719 12.6025L16.1627 12.5924H16.1535C15.7637 12.1854 15.5169 11.9117 15.4135 11.7716C15.2244 11.5047 15.182 11.2345 15.2854 10.9607C15.3584 10.7539 15.6328 10.3171 16.1077 9.64974C16.3576 9.29606 16.5554 9.01259 16.7015 8.79903C17.7554 7.26428 18.2123 6.28355 18.0721 5.85646L18.0177 5.75666C17.9811 5.69657 17.8867 5.6416 17.7346 5.59147C17.5821 5.54145 17.3873 5.53317 17.1497 5.56651L14.5184 5.58642C14.4757 5.56988 14.4149 5.57142 14.3356 5.59147C14.2564 5.61152 14.2167 5.62159 14.2167 5.62159L14.171 5.64665L14.1346 5.67676C14.1041 5.69668 14.0706 5.7317 14.034 5.78176C13.9977 5.83164 13.9672 5.89019 13.9429 5.9569C13.6564 6.76427 13.3307 7.51493 12.9652 8.20883C12.7398 8.62259 12.5328 8.98118 12.3438 9.2848C12.155 9.58832 11.9966 9.81194 11.8688 9.95529C11.7408 10.0988 11.6253 10.2137 11.5215 10.3006C11.4179 10.3874 11.3388 10.4241 11.2841 10.4107C11.2292 10.3973 11.1775 10.384 11.1286 10.3706C11.0434 10.3105 10.9748 10.2288 10.9231 10.1254C10.8712 10.022 10.8363 9.89183 10.818 9.73503C10.7998 9.57812 10.7891 9.44315 10.786 9.32968C10.7832 9.21634 10.7845 9.05603 10.7907 8.8492C10.797 8.64226 10.7998 8.50225 10.7998 8.42884C10.7998 8.17524 10.8043 7.90002 10.8134 7.60309C10.8226 7.30617 10.8301 7.07091 10.8363 6.89759C10.8425 6.7241 10.8454 6.54055 10.8454 6.34704C10.8454 6.15353 10.8347 6.00177 10.8134 5.89162C10.7924 5.78162 10.7602 5.67484 10.7177 5.57132C10.675 5.4679 10.6125 5.3879 10.5304 5.33111C10.4482 5.27439 10.346 5.22938 10.2243 5.19594C9.90149 5.1159 9.49036 5.07261 8.99078 5.06588C7.85789 5.05256 7.12995 5.13269 6.80712 5.30619C6.67921 5.37949 6.56346 5.47964 6.45997 5.60634C6.3503 5.75319 6.335 5.83332 6.41417 5.84651C6.77969 5.90649 7.03846 6.04997 7.19076 6.27682L7.24564 6.39703C7.28833 6.48375 7.33095 6.6373 7.37361 6.85745C7.41621 7.0776 7.4437 7.32114 7.45579 7.58792C7.48619 8.07509 7.48619 8.49212 7.45579 8.83903C7.42529 9.18609 7.39649 9.45626 7.369 9.64977C7.34151 9.84328 7.30042 10.0001 7.24564 10.1202C7.19075 10.2403 7.15424 10.3137 7.13594 10.3403C7.11766 10.3669 7.10243 10.3837 7.09033 10.3903C7.01116 10.4236 6.92882 10.4405 6.8436 10.4405C6.75825 10.4405 6.65476 10.3937 6.53296 10.3003C6.4112 10.2068 6.28482 10.0784 6.15384 9.91494C6.02286 9.7514 5.87514 9.52287 5.71062 9.22931C5.54622 8.93575 5.37565 8.5888 5.19901 8.18846L5.05285 7.89813C4.96149 7.71135 4.83668 7.43938 4.67831 7.08248C4.51983 6.72543 4.37976 6.38006 4.258 6.04643C4.20932 5.90631 4.1362 5.79964 4.03875 5.72623L3.99302 5.69611C3.96262 5.66947 3.91382 5.64118 3.84687 5.61103C3.77983 5.58092 3.70987 5.55933 3.63672 5.54604L1.13326 5.56595C0.877442 5.56595 0.703865 5.62944 0.612468 5.75624L0.57589 5.81622C0.557617 5.84963 0.548401 5.90298 0.548401 5.97642C0.548401 6.04983 0.566674 6.13992 0.603252 6.2466C0.96871 7.18751 1.36614 8.09493 1.79554 8.96902C2.22493 9.84311 2.59807 10.5472 2.91473 11.0807C3.23145 11.6146 3.55428 12.1184 3.88323 12.592C4.21217 13.0658 4.42991 13.3694 4.53644 13.5028C4.64311 13.6365 4.72689 13.7364 4.78778 13.8031L5.01624 14.0432C5.16243 14.2034 5.37709 14.3952 5.66034 14.6187C5.94365 14.8423 6.2573 15.0625 6.60144 15.2795C6.94565 15.4962 7.34609 15.673 7.80298 15.8098C8.2598 15.9467 8.70443 16.0016 9.13693 15.9751H10.1877C10.4008 15.955 10.5622 15.8815 10.672 15.7549L10.7083 15.7047C10.7328 15.6649 10.7556 15.603 10.7768 15.5197C10.7981 15.4363 10.8088 15.3445 10.8088 15.2445C10.8025 14.9576 10.8225 14.6991 10.868 14.4689C10.9136 14.2388 10.9655 14.0653 11.0235 13.9485C11.0815 13.8317 11.147 13.7332 11.2199 13.6534C11.2929 13.5734 11.345 13.5249 11.3755 13.5082C11.4058 13.4914 11.43 13.48 11.4483 13.4732C11.5945 13.4198 11.7665 13.4715 11.9647 13.6284C12.1627 13.7852 12.3484 13.9788 12.5221 14.209C12.6957 14.4393 12.9043 14.6977 13.1479 14.9845C13.3916 15.2715 13.6048 15.4848 13.7874 15.6251L13.9701 15.7452C14.0921 15.8254 14.2505 15.8988 14.4454 15.9655C14.64 16.0322 14.8105 16.0489 14.9569 16.0155L17.2958 15.9756C17.5272 15.9756 17.7072 15.9336 17.8349 15.8503C17.9628 15.7669 18.0388 15.6751 18.0633 15.5751C18.0878 15.4751 18.0891 15.3616 18.068 15.2347C18.0463 15.1081 18.025 15.0196 18.0037 14.9695Z" fill="white"/>
</g>
<defs>
<clipPath id="clip0">
<rect width="17.5484" height="17.5484" fill="white" transform="translate(0.548401 0.677734)"/>
</clipPath>
</defs>
</svg>
