<svg width="14" height="10" viewBox="0 0 14 10" fill="none" xmlns="http://www.w3.org/2000/svg">
<path d="M13.0999 0.911805C12.6248 0.309953 11.7477 0.0644531 10.0725 0.0644531H3.99182C2.27834 0.0644531 1.38635 0.32579 0.913051 0.966552C0.451599 1.5913 0.451599 2.51181 0.451599 3.78583V6.21409C0.451599 8.68226 0.999109 9.93542 3.99182 9.93542H10.0726C11.5253 9.93542 12.3302 9.71879 12.851 9.18765C13.385 8.64299 13.6129 7.7537 13.6129 6.21409V3.78583C13.6129 2.44227 13.5772 1.51633 13.0999 0.911805ZM8.90119 5.3352L6.13995 6.87313C6.07822 6.90752 6.01072 6.92458 5.9433 6.92458C5.86696 6.92458 5.79079 6.90268 5.72333 6.85915C5.5963 6.77712 5.51874 6.63039 5.51874 6.47213V3.40613C5.51874 3.24813 5.59609 3.10154 5.72287 3.01946C5.84968 2.93739 6.0074 2.93178 6.13897 3.00462L8.90021 4.53264C9.0407 4.61037 9.12892 4.76493 9.12914 4.93356C9.1293 5.10233 9.04146 5.25711 8.90119 5.3352Z" fill="white"/>
</svg>
