<svg width="61" height="61" viewBox="0 0 61 61" fill="none" xmlns="http://www.w3.org/2000/svg">
<path d="M26.2263 37.8734C25.8191 37.8741 25.4158 37.7943 25.0396 37.6386C24.6633 37.4829 24.3216 37.2543 24.0341 36.966C21.313 34.2374 19.7849 30.5411 19.7849 26.6875C19.7849 22.834 21.313 19.1376 24.0341 16.409L35.4716 4.9715C38.2166 2.2265 41.869 0.712938 45.7501 0.712938C49.6312 0.712938 53.2836 2.2265 56.0286 4.9715C58.7497 7.70014 60.2778 11.3964 60.2778 15.25C60.2778 19.1036 58.7497 22.7999 56.0286 25.5285L50.8016 30.7554C50.2139 31.302 49.4371 31.5993 48.6346 31.5848C47.8322 31.5702 47.0666 31.245 46.4991 30.6774C45.9316 30.1099 45.6063 29.3444 45.5918 28.5419C45.5772 27.7394 45.8745 26.9626 46.4211 26.3749L51.648 21.1479C52.8107 19.9799 53.6017 18.4939 53.9214 16.8772C54.2411 15.2604 54.0751 13.5852 53.4445 12.0626C52.8138 10.54 51.7467 9.23804 50.3774 8.32082C49.0082 7.40359 47.3981 6.9121 45.7501 6.90825C43.5236 6.90825 41.4267 7.7775 39.8521 9.35206L28.4146 20.7896C26.8525 22.3549 25.9751 24.476 25.9751 26.6875C25.9751 28.899 26.8525 31.0201 28.4146 32.5854C28.847 33.0191 29.1412 33.5712 29.2601 34.1719C29.3791 34.7726 29.3174 35.3951 29.0829 35.9608C28.8483 36.5265 28.4515 37.0101 27.9424 37.3505C27.4333 37.6909 26.8348 37.8728 26.2225 37.8734H26.2263Z" fill="white"/>
<path d="M15.2501 60.2871C13.3404 60.2919 11.4487 59.918 9.68441 59.187C7.92013 58.456 6.31831 57.3825 4.97159 56.0285C2.25048 53.2999 0.722412 49.6036 0.722412 45.75C0.722412 41.8964 2.25048 38.2001 4.97159 35.4715L10.1985 30.2446C10.7862 29.698 11.5631 29.4007 12.3655 29.4152C13.168 29.4298 13.9336 29.755 14.5011 30.3226C15.0686 30.8901 15.3939 31.6556 15.4084 32.4581C15.423 33.2606 15.1257 34.0374 14.5791 34.6251L9.35215 39.8521C8.18947 41.0201 7.39847 42.5061 7.07879 44.1228C6.75911 45.7396 6.92505 47.4148 7.5557 48.9374C8.18636 50.46 9.25352 51.762 10.6227 52.6792C11.992 53.5964 13.602 54.0879 15.2501 54.0917C17.4804 54.0917 19.5735 53.2225 21.148 51.6479L32.5855 40.2104C34.1477 38.6451 35.025 36.524 35.025 34.3125C35.025 32.101 34.1477 29.9799 32.5855 28.4146C32.0389 27.8268 31.7417 27.05 31.7562 26.2475C31.7707 25.4451 32.096 24.6795 32.6635 24.112C33.2311 23.5445 33.9966 23.2192 34.7991 23.2047C35.6015 23.1901 36.3784 23.4874 36.9661 24.034C39.6872 26.7626 41.2153 30.4589 41.2153 34.3125C41.2153 38.1661 39.6872 41.8624 36.9661 44.591L25.5286 56.0285C24.1819 57.3825 22.58 58.456 20.8158 59.187C19.0515 59.918 17.1598 60.2919 15.2501 60.2871Z" fill="white"/>
</svg>
