<svg width="18" height="17" viewBox="0 0 18 17" fill="none" xmlns="http://www.w3.org/2000/svg">
<path d="M1.69203 1.62485L1.82087 1.46581L2.38049 0.921278C2.38068 0.921094 2.38087 0.920909 2.38106 0.920724C2.68804 0.624237 3.15404 0.640892 3.4064 0.884871C3.40643 0.884904 3.40647 0.884937 3.4065 0.884971L6.12597 3.51655C6.12602 3.5166 6.12607 3.51665 6.12612 3.51669C6.12615 3.51673 6.12619 3.51676 6.12622 3.51679C6.36492 3.74828 6.38472 4.15983 6.08973 4.4453L6.08949 4.44554L5.63804 4.88283L5.63736 4.8835L4.71839 5.77124L4.32101 6.15512L4.6021 6.6308C4.64047 6.69575 4.67926 6.76363 4.72247 6.83926C4.72968 6.85187 4.737 6.86469 4.74447 6.87774L4.74506 6.87878L4.75182 6.89056C5.23765 7.73682 5.93523 8.95192 7.25384 10.2275C8.57233 11.5041 9.82841 12.1774 10.7021 12.6458L10.7026 12.646C10.7032 12.6463 10.7037 12.6466 10.7043 12.6469C10.7993 12.6985 10.89 12.7473 10.9777 12.794L11.4274 13.0338L11.7937 12.6795L13.1639 11.3541L13.1641 11.354C13.4695 11.0584 13.9359 11.0734 14.1905 11.3181C14.1907 11.3183 14.1909 11.3185 14.191 11.3186L16.909 13.9485C16.9091 13.9486 16.9092 13.9486 16.9093 13.9487C17.1477 14.1804 17.1675 14.5913 16.8755 14.8768L16.2727 15.4479L16.1445 15.545C15.8725 15.7509 15.5539 15.9265 15.2094 16.0567C14.888 16.1774 14.5754 16.2528 14.2487 16.291C14.117 16.3036 10.2669 16.6304 5.41592 11.9376C1.76432 8.40471 0.613441 5.98151 0.930065 3.44203L0.930719 3.43662C0.964885 3.14403 1.03998 2.84524 1.1667 2.52135C1.30133 2.18993 1.48084 1.88555 1.69203 1.62485ZM5.35213 6.53026C5.34493 6.51766 5.33776 6.50512 5.33064 6.49265C5.28759 6.4173 5.24594 6.34441 5.20474 6.27469L5.35213 6.53026Z" stroke="#FF8200" stroke-width="1.4"/>
</svg>
