<svg width="39" height="11" viewBox="0 0 39 11" fill="none" xmlns="http://www.w3.org/2000/svg">
<path d="M11.312 9.96803H7.84V9.56203C8.02667 9.48736 8.21333 9.4267 8.4 9.38003C8.58667 9.32403 8.778 9.2727 8.974 9.22603V2.92603L9.03 1.28803H8.918L8.456 2.78603L5.586 9.96803H5.222L2.492 2.78603L1.988 1.14803H1.862L1.876 2.92603V9.22603C2.05333 9.26336 2.23067 9.31003 2.408 9.36603C2.58533 9.42203 2.76267 9.48736 2.94 9.56203V9.96803H0.0139999V9.56203C0.191333 9.48736 0.373333 9.42203 0.559999 9.36603C0.755999 9.3007 0.952001 9.24936 1.148 9.21203V0.92403C0.952001 0.886697 0.755999 0.840031 0.559999 0.784031C0.373333 0.718697 0.186667 0.648697 0 0.574031V0.16803H2.87L5.306 6.56603L5.782 8.00803H5.796L6.272 6.53803L8.792 0.16803H11.326V0.574031C11.158 0.648697 10.9853 0.718697 10.808 0.784031C10.6307 0.840031 10.4487 0.886697 10.262 0.92403V9.24003C10.458 9.27736 10.64 9.32403 10.808 9.38003C10.9853 9.4267 11.1533 9.48736 11.312 9.56203V9.96803Z" fill="white"/>
<path d="M12.4766 5.06803C12.4766 4.34003 12.5746 3.66803 12.7706 3.05203C12.976 2.4267 13.2653 1.89003 13.6386 1.44203C14.0213 0.984697 14.488 0.63003 15.0386 0.37803C15.5893 0.12603 16.2146 3.05176e-05 16.9146 3.05176e-05C17.6146 3.05176e-05 18.24 0.12603 18.7906 0.37803C19.3413 0.63003 19.8033 0.984697 20.1766 1.44203C20.5593 1.89003 20.8486 2.4267 21.0446 3.05203C21.25 3.66803 21.3526 4.34003 21.3526 5.06803C21.3526 5.79603 21.25 6.4727 21.0446 7.09803C20.8486 7.71403 20.5593 8.2507 20.1766 8.70803C19.8033 9.15603 19.3413 9.50603 18.7906 9.75803C18.24 10.01 17.6146 10.136 16.9146 10.136C16.2146 10.136 15.5893 10.01 15.0386 9.75803C14.488 9.50603 14.0213 9.15603 13.6386 8.70803C13.2653 8.2507 12.976 7.71403 12.7706 7.09803C12.5746 6.4727 12.4766 5.79603 12.4766 5.06803ZM13.9746 5.06803C13.9746 5.66536 14.0353 6.23003 14.1566 6.76203C14.2873 7.2847 14.4786 7.74203 14.7306 8.13403C14.9826 8.52603 15.3 8.8387 15.6826 9.07203C16.0653 9.29603 16.518 9.40803 17.0406 9.40803C17.5166 9.40803 17.932 9.29603 18.2866 9.07203C18.6413 8.8387 18.9306 8.52603 19.1546 8.13403C19.388 7.74203 19.5606 7.2847 19.6726 6.76203C19.794 6.23003 19.8546 5.66536 19.8546 5.06803C19.8546 4.4707 19.794 3.9107 19.6726 3.38803C19.5513 2.85603 19.3646 2.39403 19.1126 2.00203C18.8606 1.61003 18.5433 1.30203 18.1606 1.07803C17.778 0.844697 17.3253 0.72803 16.8026 0.72803C16.2893 0.72803 15.8506 0.844697 15.4866 1.07803C15.132 1.30203 14.8426 1.61003 14.6186 2.00203C14.3946 2.39403 14.2313 2.85603 14.1286 3.38803C14.026 3.9107 13.9746 4.4707 13.9746 5.06803Z" fill="white"/>
<path d="M24.9959 9.22603C25.2106 9.2727 25.4159 9.32403 25.6119 9.38003C25.8079 9.4267 25.9992 9.48736 26.1859 9.56203V9.96803H22.5039V9.56203C22.7092 9.4687 22.9052 9.3987 23.0919 9.35203C23.2786 9.30536 23.4652 9.26336 23.6519 9.22603V0.92403C23.4092 0.877364 23.1946 0.826031 23.0079 0.770031C22.8212 0.704697 22.6532 0.639364 22.5039 0.574031V0.16803H23.7359C24.1092 0.16803 24.5152 0.149363 24.9539 0.11203C25.4019 0.0746972 25.8359 0.0560312 26.2559 0.0560312C26.7132 0.0560312 27.1379 0.107364 27.5299 0.210031C27.9312 0.312697 28.2766 0.47603 28.5659 0.70003C28.8552 0.924031 29.0792 1.2087 29.2379 1.55403C29.4059 1.89936 29.4899 2.3147 29.4899 2.80003C29.4899 3.48136 29.3079 4.04603 28.9439 4.49403C28.5892 4.94203 28.1039 5.26403 27.4879 5.46003C27.8892 6.0947 28.3092 6.7247 28.7479 7.35003C29.1866 7.97536 29.6439 8.59603 30.1199 9.21203L30.8759 9.61803V9.96803H29.1819L28.6499 9.57603C28.3886 9.24936 28.1506 8.93203 27.9359 8.62403C27.7212 8.3067 27.5206 7.98936 27.3339 7.67203C27.1472 7.34536 26.9699 7.0187 26.8019 6.69203C26.6432 6.35603 26.4799 6.00136 26.3119 5.62803H24.9959V9.22603ZM25.9479 0.784031C25.7239 0.784031 25.5372 0.788698 25.3879 0.798031C25.2479 0.807364 25.1172 0.82603 24.9959 0.854031V5.04003H26.0039C26.6479 5.04003 27.1566 4.8347 27.5299 4.42403C27.9126 4.01336 28.1039 3.47203 28.1039 2.80003C28.1039 2.10936 27.9032 1.6007 27.5019 1.27403C27.1006 0.947364 26.5826 0.784031 25.9479 0.784031Z" fill="white"/>
<path d="M38.054 0.16803C38.0446 0.541363 38.026 0.919364 37.998 1.30203C37.9793 1.67536 37.9466 2.05336 37.9 2.43603H37.536L36.962 0.89603H33.91V4.60603H36.192L36.738 3.57003H37.088C37.144 4.49403 37.144 5.4367 37.088 6.39803H36.738L36.192 5.33403H33.91V9.24003H37.13L37.816 7.56003H38.166C38.2313 7.95203 38.278 8.3487 38.306 8.75003C38.334 9.15136 38.3386 9.55736 38.32 9.96803H31.418V9.56203C31.7446 9.4127 32.1273 9.3007 32.566 9.22603V0.92403C32.3793 0.886697 32.188 0.840031 31.992 0.784031C31.796 0.718697 31.6046 0.648697 31.418 0.574031V0.16803H38.054Z" fill="white"/>
</svg>
