<svg width="49" height="51" viewBox="0 0 49 51" fill="none" xmlns="http://www.w3.org/2000/svg">
<path d="M14.6302 42.4098L14.845 40.1521L17.6037 39.5426L21.8342 34.1299L18.8739 34.5925L18.171 34.7023L18.0443 35.4023L17.4902 38.4613L17.49 38.4626C17.481 38.5128 17.4422 38.5542 17.3897 38.5658L17.3879 38.5661L14.6292 39.1757L13.9184 39.3327L13.8495 40.0574L13.6351 42.3104L14.6302 42.4098ZM14.6302 42.4098C14.6042 42.6702 14.4883 42.9138 14.3023 43.0983M14.6302 42.4098L14.3023 43.0983M14.3023 43.0983L12.6177 44.7351C12.3723 44.983 12.0259 45.1038 11.6793 45.0625L14.3023 43.0983ZM0.113062 43.8772L0 49.8712C0 50.4946 0.506233 51 1.13061 51H5.8792C6.17966 51.0017 6.46853 50.8839 6.68193 50.6726L9.35019 48.0086L0.113062 43.8772ZM0.113062 43.8772C0.117301 43.585 0.234744 43.3057 0.44094 43.0983L0.113062 43.8772ZM21.9063 34.0933C21.8871 34.1126 21.8621 34.1254 21.8348 34.1298L13.635 42.3116C13.6319 42.3397 13.6195 42.3662 13.5998 42.3866L11.9208 44.0179L11.9138 44.0247L11.9069 44.0317C11.8791 44.0598 11.8392 44.0742 11.7986 44.0696C11.7983 44.0696 11.798 44.0695 11.7977 44.0695L9.8676 43.8328L8.77713 43.6991L8.74629 44.7973L8.67845 47.213L8.67836 47.2166C8.67757 47.2488 8.66456 47.2796 8.64178 47.3028C8.64159 47.303 8.6414 47.3032 8.6412 47.3034L5.97846 49.9619C5.97821 49.9622 5.97797 49.9624 5.97772 49.9626C5.9531 49.9866 5.91969 50.0002 5.88483 50V50H5.8792H1.13061C1.05869 50 1.00261 49.9434 1.00009 49.8759L1.11289 43.8961L1.11296 43.8917C1.11343 43.8588 1.12654 43.8274 1.14953 43.804C1.14973 43.8038 1.14993 43.8035 1.15013 43.8033L15.597 29.3683L16.3053 28.6606L15.5967 27.9532L14.9091 27.2667C14.9089 27.2665 14.9087 27.2663 14.9086 27.2661C14.8594 27.2162 14.8595 27.1368 14.9086 27.0869C14.9088 27.0867 14.9089 27.0865 14.9091 27.0863L18.9639 23.038C18.9641 23.0378 18.9643 23.0376 18.9645 23.0374C19.0153 22.9876 19.0973 22.9875 19.1482 23.0371C19.1485 23.0374 19.1488 23.0377 19.1491 23.038L25.9626 29.8632C25.9627 29.8633 25.9629 29.8634 25.963 29.8635C26.0122 29.9134 26.0124 29.9929 25.963 30.0431C25.9629 30.0433 25.9627 30.0435 25.9625 30.0437L21.9063 34.0933Z" stroke="#FF8200" stroke-width="2"/>
<path d="M42.816 17.6385L42.4144 18.0387C41.5584 18.8918 40.1746 18.8918 39.3186 18.0387L39.3166 18.0367L31.0391 9.7398C30.1504 8.94582 30.0557 7.58259 30.8332 6.67263C31.6213 5.75017 33.0077 5.64213 33.9288 6.43273L42.816 17.6385ZM42.816 17.6385L42.78 17.4943M42.816 17.6385L42.78 17.4943M42.78 17.4943C43.2485 16.6515 43.1195 15.5678 42.3997 14.8595C42.3987 14.8585 42.3976 14.8574 42.3966 14.8564L34.1375 6.63761C34.0726 6.56478 34.0029 6.49634 33.9288 6.43278L42.78 17.4943ZM36.874 2.7505L36.9 2.78103L36.9283 2.80937L46.1587 12.0494C46.1589 12.0496 46.1591 12.0499 46.1593 12.0501C47.4405 13.3399 48 14.6641 48 15.9043C48 17.144 47.4408 18.4647 46.1608 19.748C46.1606 19.7482 46.1604 19.7484 46.1602 19.7487L32.3032 33.5545C32.3021 33.5555 32.301 33.5566 32.2999 33.5576C31.6926 34.1472 30.7289 34.1474 30.1213 33.5584L15.4414 18.8441C14.8529 18.2339 14.8529 17.2648 15.4414 16.6547L29.2548 2.80891L29.2828 2.78077L29.3086 2.75049C29.4795 2.54948 29.6663 2.36231 29.8668 2.191L29.8668 2.19097C31.9557 0.4059 35.0925 0.655822 36.874 2.7505Z" stroke="#FF8200" stroke-width="2"/>
</svg>
