<svg width="39" height="52" viewBox="0 0 39 52" fill="none" xmlns="http://www.w3.org/2000/svg">
<path fill-rule="evenodd" clip-rule="evenodd" d="M17.142 2.62523C15.652 4.36638 13.275 5.06434 11.0802 4.40514C10.0293 4.08953 8.94483 4.78649 8.79539 5.87348C8.48327 8.14378 6.86093 10.0161 4.65816 10.6481C3.6035 10.9507 3.06797 12.1234 3.52993 13.1186C4.49477 15.1972 4.1422 17.6494 2.63082 19.372C1.90719 20.1968 2.09065 21.4728 3.01734 22.0603C4.95281 23.2873 5.98195 25.5408 5.64181 27.8071C5.47896 28.8922 6.32316 29.8664 7.42036 29.8596C7.83519 29.8571 8.24322 29.8989 8.63889 29.9814L8.6601 29.9415L8.8053 30.0188C10.5239 30.4307 11.99 31.6166 12.7352 33.2753C13.1848 34.2761 14.4217 34.6393 15.3411 34.0404C17.2612 32.7896 19.7386 32.7896 21.6588 34.0404C22.5782 34.6393 23.8151 34.2761 24.2647 33.2753C25.2038 31.1849 27.2879 29.8455 29.5795 29.8596C30.6767 29.8664 31.5209 28.8922 31.3581 27.8071C31.0179 25.5408 32.0471 23.2873 33.9826 22.0603C34.9092 21.4728 35.0927 20.1968 34.3691 19.372C32.8577 17.6494 32.5051 15.1972 33.47 13.1186C33.9319 12.1234 33.3964 10.9507 32.3417 10.6481C30.139 10.0161 28.5166 8.14377 28.2045 5.87348C28.0551 4.78649 26.9706 4.08953 25.9197 4.40514C23.7249 5.06434 21.3479 4.36638 19.8579 2.62523C19.1445 1.79159 17.8554 1.79159 17.142 2.62523ZM7.638 31.8639C7.56989 31.8606 7.50145 31.8592 7.43272 31.8596C5.10775 31.874 3.31888 29.8095 3.66397 27.5102C3.88656 26.0272 3.21307 24.5524 1.94647 23.7494C-0.0171851 22.5045 -0.405944 19.8007 1.12744 18.053C2.11651 16.9257 2.34724 15.3209 1.71583 13.9606C0.73694 11.8517 1.87172 9.36691 4.10656 8.72567C5.54808 8.31205 6.60977 7.0868 6.81403 5.60108C7.13069 3.29774 9.42873 1.82088 11.6555 2.48967C13.0918 2.92106 14.6474 2.46431 15.6224 1.32487C17.1341 -0.441624 19.8658 -0.441624 21.3775 1.32487C22.3525 2.46431 23.9081 2.92106 25.3444 2.48967C27.5712 1.82088 29.8692 3.29774 30.1859 5.60108C30.3901 7.0868 31.4518 8.31205 32.8933 8.72567C35.1282 9.36691 36.263 11.8517 35.2841 13.9606C34.6527 15.3209 34.8834 16.9257 35.8725 18.053C37.4058 19.8007 37.0171 22.5045 35.0534 23.7494C33.7868 24.5524 33.1133 26.0272 33.3359 27.5102C33.6422 29.5507 32.2679 31.4062 30.3298 31.788L37.3289 44.9517L38.0081 46.2291L36.5731 46.4131L32.1764 46.9766L29.2506 50.3064L28.2956 51.3932L27.6164 50.1158L19.7457 35.3129C19.3013 35.1581 18.8347 35.0887 18.3704 35.1045L18.3726 35.1057L10.3917 50.1158L9.71246 51.3932L8.75751 50.3064L5.83168 46.9766L1.43502 46.4131L0 46.2291L0.679201 44.9517L7.638 31.8639ZM15.5579 36.1391L9.30496 47.8995L6.97325 45.2458L6.99081 45.1088L6.83537 45.0889L6.73193 44.9712L6.62818 45.0623L3.12431 44.6132L9.56453 32.5007C10.1421 32.8877 10.6139 33.4339 10.9108 34.0948C11.7266 35.9108 13.7656 36.7361 15.5579 36.1391ZM28.7031 47.8995L22.5519 36.3305C24.0118 36.3602 25.4389 35.5421 26.0891 34.0948C26.5128 33.1516 27.2929 32.442 28.228 32.0953L34.8838 44.6132L31.3799 45.0623L31.2761 44.9712L31.1727 45.0889L31.0173 45.1088L31.0348 45.2458L28.7031 47.8995ZM18.4999 26.9623C23.1944 26.9623 26.9999 23.1567 26.9999 18.4623C26.9999 13.7679 23.1944 9.9623 18.4999 9.9623C13.8055 9.9623 9.99994 13.7679 9.99994 18.4623C9.99994 23.1567 13.8055 26.9623 18.4999 26.9623ZM18.4999 28.9623C24.2989 28.9623 28.9999 24.2613 28.9999 18.4623C28.9999 12.6633 24.2989 7.9623 18.4999 7.9623C12.701 7.9623 7.99995 12.6633 7.99995 18.4623C7.99995 24.2613 12.701 28.9623 18.4999 28.9623ZM17.4628 21.6826L23.6936 15.6826L22.3063 14.242L16.7692 19.574L16.7541 19.5595L16.7477 19.5533L16.7412 19.5471L16.7348 19.5409L16.7283 19.5347L16.6241 19.4343L16.5714 19.3836L16.5184 19.3326L16.4118 19.2299L16.3047 19.1267L16.0905 18.9205L15.9843 18.8182L15.9315 18.7674L15.9053 18.7422L15.8922 18.7296L15.8792 18.717L15.6741 18.5195L15.5749 18.424L15.5688 18.4181L15.5627 18.4122L15.5566 18.4064L15.5505 18.4005L15.5384 18.3888L15.5324 18.383L15.5263 18.3772L15.4785 18.3312L15.1295 17.9951L15.11 17.9763L15.1004 17.9671L15.0909 17.9579L15.0814 17.9488L15.0767 17.9442L15.072 17.9397L15.0535 17.9219L14.9828 17.8538L14.9743 17.8456L14.966 17.8376L14.9495 17.8218L14.9335 17.8063L14.9178 17.7912L14.9101 17.7838L14.9025 17.7765L14.895 17.7692L14.8913 17.7657L14.8876 17.7621L14.8731 17.7481L14.8695 17.7447L14.866 17.7413L14.859 17.7346L14.7614 17.6407L14.7416 17.6215L14.7236 17.6042L14.6936 17.5753L13.3063 19.016L13.3076 19.0172L13.3096 19.0191L13.3131 19.0224L13.3148 19.0242L13.3166 19.0259L13.3184 19.0276L13.3203 19.0294L13.3363 19.0449L13.3742 19.0813L13.3912 19.0977L13.4074 19.1133L13.4104 19.1162L13.4134 19.1191L13.4164 19.122L13.4194 19.1249L13.4447 19.1492L13.4717 19.1752L13.5305 19.2318L13.5622 19.2624L13.5663 19.2663L13.5704 19.2703L13.5745 19.2743L13.5787 19.2782L13.5955 19.2944L13.6126 19.3109L13.617 19.3151L13.6214 19.3193L13.6257 19.3236L13.6301 19.3278L13.648 19.345L13.6525 19.3493L13.6571 19.3537L13.6662 19.3625L13.7422 19.4357L13.7472 19.4405L13.7521 19.4452L13.7571 19.45L13.762 19.4548L13.767 19.4596L13.772 19.4644L13.7821 19.4742L13.8025 19.4938L13.8128 19.5037L13.818 19.5087L13.8232 19.5137L13.8336 19.5237L13.8441 19.5339L13.8494 19.5389L13.8547 19.5441L13.8654 19.5543L13.9086 19.5959L13.9529 19.6386L13.9981 19.6821L14.0442 19.7266L14.0501 19.7322L14.0559 19.7378L14.0676 19.7491L14.0912 19.7718L14.115 19.7947L14.139 19.8178L14.1451 19.8237L14.1511 19.8295L14.1632 19.8411L14.1754 19.8529L14.1876 19.8646L14.2369 19.912L14.2868 19.9601L14.4919 20.1576L14.518 20.1828L14.5443 20.2081L14.597 20.2588L14.7032 20.3611L14.9174 20.5674L14.971 20.619L15.0245 20.6705L15.1311 20.7732L15.1841 20.8242L15.2368 20.8749L15.2891 20.9253L15.341 20.9753L16.0755 21.6826L16.7692 22.3506L17.4628 21.6826Z" fill="#FF8200"/>
</svg>
