<svg width="44" height="48" viewBox="0 0 44 48" fill="none" xmlns="http://www.w3.org/2000/svg">
<rect x="6" y="6" width="9" height="6" stroke="#FF8200" stroke-width="2"/>
<path d="M37.7814 11.1875C37.3438 9.875 36.0314 9 34.7188 9H10.6563C9.12502 9 8.03127 9.875 7.59376 11.1875L3 24.3125V41.8126C3 43.1251 3.875 44.0001 5.18751 44.0001H7.37501C8.68752 44.0001 9.56252 43.1251 9.56252 41.8126V39.6251H35.8126V41.8126C35.8126 43.1251 36.6876 44.0001 38.0001 44.0001H40.1876C41.5001 44.0001 42.3751 43.1251 42.3751 41.8126V24.3125L37.7814 11.1875ZM10.6563 33.0626C8.90627 33.0626 7.37501 31.5313 7.37501 29.7813C7.37501 28.0313 8.90627 26.5001 10.6563 26.5001C12.4063 26.5001 13.9375 28.0313 13.9375 29.7813C13.9375 31.5313 12.4063 33.0626 10.6563 33.0626ZM7.37501 22.125L10.6563 12.2813H34.7188L38.0001 22.125H7.37501Z" stroke="#FF8200" stroke-width="2"/>
<rect y="1" width="22" height="17" fill="white"/>
<rect y="18" width="17" height="30" fill="white"/>
<path d="M1.1 18.025V4.5C1.1 2.63714 2.6365 1.1 4.56541 1.1H15.9789C17.9079 1.1 19.4444 2.63714 19.4444 4.5V18.025H14.9601H13.8601V19.125V43.4892L6.1168 46.4095V43.0424L8.33166 39.1713L8.6442 38.625L8.33166 38.0787L6.28411 34.5L8.33166 30.9213L8.6442 30.375L8.33166 29.8287L6.1168 25.9576V19.125V18.025H5.0168H1.1Z" fill="white" stroke="#FF8200" stroke-width="2.2"/>
</svg>
