<svg width="52" height="52" viewBox="0 0 52 52" fill="none" xmlns="http://www.w3.org/2000/svg">
<g clip-path="url(#clip0)">
<path d="M50.2077 4.73393L47.0831 1.60926C45.0453 -0.428493 41.6117 -0.547017 39.4287 1.3452L33.9371 6.10543C33.8668 6.16637 33.8065 6.23807 33.7586 6.3178L28.4128 15.2224L24.9804 16.3665C24.6904 16.4632 24.4711 16.7032 24.4009 17.0007C24.3307 17.2981 24.4195 17.6107 24.6356 17.827L33.99 27.1813C34.1574 27.3486 34.3826 27.4396 34.6137 27.4396C34.6813 27.4396 34.7492 27.4318 34.8163 27.416C35.1138 27.3458 35.3538 27.1265 35.4505 26.8365L36.5949 23.403L45.6304 17.947C45.7099 17.8989 45.7814 17.8386 45.8422 17.7682L50.4897 12.3824C52.3713 10.2021 52.2447 6.77097 50.2077 4.73393ZM49.1543 11.23L44.5985 16.5094L35.4051 22.0607C35.2256 22.1691 35.0907 22.3379 35.0244 22.5369L34.2284 24.9249L32.1205 22.8169C32.1201 22.8165 32.1198 22.816 32.1194 22.8156L29.0011 19.6975C29.0008 19.6972 29.0004 19.697 29.0001 19.6967L26.8919 17.5886L29.2799 16.7927C29.4795 16.726 29.6488 16.5903 29.7571 16.41L35.1986 7.34622L40.5841 2.678C42.0824 1.37902 44.4383 1.45905 45.8357 2.85665L48.9605 5.98132C50.3586 7.37923 50.4455 9.73385 49.1543 11.23Z" fill="#FF8200"/>
<path d="M47.7073 35.4369C45.1179 32.8476 41.3067 31.9475 37.8537 33.067L19.1101 14.3234C20.2295 10.8704 19.3294 7.05914 16.7402 4.4697C14.0122 1.74194 9.92827 0.888611 6.3356 2.29667C6.05864 2.40524 5.8549 2.64615 5.79407 2.93743C5.73323 3.22861 5.82332 3.53096 6.03376 3.7414L11.6442 9.35171L7.9023 13.0935L2.29199 7.48306C2.08145 7.27273 1.77951 7.18285 1.48802 7.24338C1.19674 7.30421 0.955733 7.50784 0.847264 7.78491C-0.560596 11.3774 0.292428 15.4614 3.0203 18.1895C5.60973 20.7788 9.42087 21.6791 12.8739 20.5594L19.8825 27.5681L11.1545 36.2962L5.60333 39.4C5.44896 39.4863 5.32404 39.6171 5.24492 39.7754L2.75044 44.7643C2.58063 45.1038 2.64715 45.514 2.91558 45.7825L6.03365 48.9007C6.20296 49.07 6.42873 49.1589 6.65755 49.1589C6.79151 49.1589 6.92649 49.1285 7.05182 49.0658L12.0408 46.5713C12.199 46.4922 12.3298 46.3673 12.4161 46.2129L15.5199 40.6616L24.2481 31.9337L31.6176 39.3032C30.4981 42.7562 31.3983 46.5675 33.9876 49.1569C35.8425 51.0116 38.3239 51.9996 40.8518 51.9996C42.0417 51.9995 43.2422 51.7806 44.3921 51.33C44.669 51.2215 44.8728 50.9806 44.9336 50.6893C44.9945 50.3981 44.9044 50.0957 44.6939 49.8853L39.0835 44.2749L42.8253 40.5332L48.4356 46.1435C48.646 46.354 48.9482 46.4443 49.2396 46.3832C49.5308 46.3224 49.7719 46.1188 49.8803 45.8417C51.2883 42.249 50.4353 38.165 47.7073 35.4369ZM14.186 39.5007C14.1286 39.5581 14.0795 39.6231 14.0399 39.694L11.009 45.115L6.83153 47.2037L4.61239 44.9846L6.70102 40.807L12.1219 37.7762C12.1928 37.7366 12.2578 37.6875 12.3152 37.6302L21.1297 28.8156L23.0006 30.6864L14.186 39.5007ZM48.6339 43.8471L43.449 38.6621C43.1045 38.3178 42.5462 38.3178 42.2017 38.6621L37.2127 43.6511C37.0474 43.8165 36.9545 44.0408 36.9545 44.2748C36.9545 44.5088 37.0474 44.7329 37.2127 44.8985L42.3978 50.0836C39.8269 50.5944 37.1307 49.8054 35.2349 47.9096C33.0029 45.6776 32.3048 42.3357 33.4569 39.3959C33.5847 39.0695 33.5072 38.6984 33.2594 38.4505L13.7266 18.9178C13.558 18.7493 13.3324 18.6595 13.1027 18.6595C12.9946 18.6595 12.8856 18.6794 12.7812 18.7203C9.84154 19.8725 6.49962 19.1742 4.26748 16.9424C2.37162 15.0464 1.58247 12.3501 2.09364 9.77939L7.27861 14.9645C7.62311 15.3089 8.1814 15.3087 8.5259 14.9645L13.5149 9.97551C13.8592 9.63101 13.8592 9.07272 13.5149 8.72822L8.32988 3.54315C10.9008 3.03128 13.5968 3.82103 15.4928 5.7171C17.7248 7.94913 18.4229 11.291 17.2708 14.2308C17.143 14.5572 17.2205 14.9283 17.4683 15.1762L37.0009 34.7087C37.2489 34.9565 37.6202 35.034 37.9463 34.9062C40.8861 33.7544 44.2279 34.4522 46.46 36.6841C48.3561 38.5801 49.145 41.2765 48.6339 43.8471Z" fill="#FF8200"/>
</g>
<defs>
<clipPath id="clip0">
<rect width="52" height="52" fill="white"/>
</clipPath>
</defs>
</svg>
