<svg width="50" height="43" viewBox="0 0 50 43" fill="none" xmlns="http://www.w3.org/2000/svg">
<path d="M49 21L25 2L1 21" stroke="#FF8200" stroke-width="2"/>
<path d="M6 17V42H44V17" stroke="#FF8200" stroke-width="2"/>
<path d="M24.5136 15.1267C24.8712 14.2384 26.1288 14.2384 26.4864 15.1267C27.1668 16.8162 29.1622 17.5424 30.7694 16.6855C31.6144 16.235 32.5777 17.0433 32.2807 17.9537C31.7159 19.6853 32.7777 21.5242 34.5596 21.9009C35.4965 22.0989 35.7149 23.3373 34.9022 23.8438C33.3565 24.8072 32.9878 26.8984 34.1108 28.3324C34.7012 29.0863 34.0724 30.1753 33.1243 30.041C31.321 29.7854 29.6943 31.1503 29.6328 32.9707C29.6005 33.9277 28.4188 34.3578 27.7789 33.6454C26.5617 32.2905 24.4383 32.2905 23.2211 33.6454C22.5812 34.3578 21.3995 33.9277 21.3672 32.9707C21.3057 31.1503 19.679 29.7854 17.8757 30.041C16.9276 30.1753 16.2988 29.0863 16.8892 28.3324C18.0122 26.8984 17.6435 24.8072 16.0978 23.8438C15.2851 23.3373 15.5035 22.0989 16.4404 21.9009C18.2224 21.5242 19.2841 19.6853 18.7193 17.9537C18.4223 17.0433 19.3856 16.235 20.2306 16.6855C21.8378 17.5424 23.8332 16.8162 24.5136 15.1267Z" stroke="#FF8200" stroke-width="2"/>
<circle cx="25.5" cy="24.5" r="2.5" stroke="#FF8200" stroke-width="2"/>
</svg>
