<svg width="22" height="21" viewBox="0 0 22 21" fill="none" xmlns="http://www.w3.org/2000/svg">
<path d="M19.0893 2.54963C17.7663 1.15977 15.981 0.368363 14.0626 0.321191C12.1442 0.274021 10.3222 0.976729 8.93233 2.29989C7.94245 3.24225 7.24522 4.43835 6.91604 5.75892C6.63461 6.8879 6.63078 8.06428 6.90159 9.18917L0.853844 14.9466C0.704065 15.0892 0.619265 15.2869 0.619259 15.4937L0.618204 19.4147C0.618089 19.8178 0.934274 20.1499 1.33687 20.1697L5.25323 20.3613C5.25939 20.3616 5.26549 20.3618 5.27159 20.362C5.47168 20.3669 5.66587 20.2922 5.81119 20.1539L10.3033 15.8774C10.3033 15.8773 10.3034 15.8772 10.3036 15.8772C10.3037 15.8771 10.3037 15.877 10.3039 15.8768L11.8589 14.3965C12.4594 14.5727 13.0802 14.6696 13.71 14.6851C13.7101 14.6851 13.71 14.6851 13.7101 14.6851C15.6283 14.7323 17.4501 14.0297 18.8396 12.7067C21.7088 9.97515 21.8208 5.41872 19.0893 2.54963ZM17.7976 11.6121C16.7003 12.6568 15.2618 13.2115 13.7472 13.1743C13.1227 13.1589 12.5098 13.0423 11.9257 12.828C11.6556 12.7288 11.3527 12.7917 11.1444 12.99L9.80887 14.2614L9.4628 13.8979C9.17509 13.5957 8.69683 13.5838 8.39449 13.8715C8.09221 14.1592 8.08045 14.6376 8.36816 14.9398L8.71429 15.3034L7.22207 16.7241L6.87595 16.3604C6.58823 16.0582 6.10998 16.0465 5.80763 16.3342C5.50541 16.622 5.49359 17.1002 5.78136 17.4026L6.12749 17.7662L5.00363 18.8361L2.12958 18.6954L2.13037 15.8179L8.27112 9.97199C8.47947 9.77364 8.55716 9.47411 8.4714 9.19947C7.82195 7.11966 8.39782 4.89535 9.97437 3.39453C11.0719 2.34971 12.5106 1.79486 14.0254 1.83211C15.2855 1.86309 16.4726 2.30104 17.4376 3.07893L15.2065 5.20293C14.8511 5.00438 14.4506 4.89355 14.032 4.88326C13.3534 4.86657 12.7088 5.11515 12.2171 5.58324C11.2022 6.54948 11.1626 8.16126 12.1289 9.17621C12.5969 9.66784 13.2284 9.94779 13.9071 9.96448C14.5857 9.98117 15.2301 9.73258 15.7218 9.26456C16.2134 8.79647 16.4935 8.16493 16.5102 7.48634C16.5204 7.06773 16.4295 6.66223 16.2486 6.29745L18.4784 4.17475C20.121 6.43796 19.8775 9.63195 17.7976 11.6121ZM14.7156 6.71357C14.9054 6.91288 15.0061 7.17411 14.9994 7.44907C14.9926 7.72409 14.8792 7.98011 14.6797 8.16985C14.4804 8.35954 14.2192 8.46033 13.9442 8.45357C13.6692 8.4468 13.4132 8.33336 13.2236 8.13405C12.8318 7.7226 12.8479 7.06928 13.2592 6.6777C13.4585 6.48795 13.7198 6.38717 13.9949 6.39393C14.2698 6.40075 14.5258 6.51419 14.7156 6.71357Z" fill="white"/>
</svg>
