<svg width="42" height="40" viewBox="0 0 42 40" fill="none" xmlns="http://www.w3.org/2000/svg">
<path d="M11.152 15.7559V38.0599H1V15.7559H11.152Z" stroke="#FF8200" stroke-width="2"/>
<path d="M40.6907 22.6336L40.6764 22.6622L40.664 22.6916L34.7478 36.6934C34.7475 36.694 34.7473 36.6946 34.747 36.6952C34.3033 37.7285 33.271 38.4545 32.116 38.4545H14.3615C12.7438 38.4545 11.416 37.1268 11.416 35.5091V15.7818C11.416 14.8096 11.7349 14.1685 12.1997 13.82L12.2565 13.7774L12.3068 13.7271L24.6525 1.38133L26.0223 2.62649C26.3495 3.14005 26.5787 3.68386 26.5787 4.14273V4.6271L24.6288 13.5967L24.3653 14.8091H25.606H38.0342C39.4913 14.8091 40.7138 15.8867 40.9416 17.2832C40.8406 17.4493 40.7824 17.6444 40.7824 17.8531V21.6999C40.7824 21.9028 40.7817 22.1012 40.7627 22.2909C40.7426 22.4914 40.7091 22.5967 40.6907 22.6336Z" stroke="#FF8200" stroke-width="2"/>
<circle cx="4.5" cy="20.5" r="1" stroke="#FF8200"/>
</svg>
