<svg width="192" height="35" viewBox="0 0 192 35" fill="none" xmlns="http://www.w3.org/2000/svg">
<path d="M62.648 27L61.4 22.92H55.16L53.912 27H50L56.048 9.79199H60.488L66.56 27H62.648ZM60.536 19.872L59.288 15.888C59.208 15.616 59.104 15.272 58.976 14.856C58.848 14.44 58.72 14.016 58.592 13.584C58.464 13.152 58.36 12.776 58.28 12.456C58.2 12.776 58.088 13.176 57.944 13.656C57.816 14.12 57.688 14.568 57.56 15C57.448 15.416 57.36 15.712 57.296 15.888L56.072 19.872H60.536Z" fill="#2C2C2C"/>
<path d="M80.0583 17.328C80.0583 18.032 79.8343 18.632 79.3863 19.128C78.9543 19.624 78.3063 19.944 77.4423 20.088V20.184C78.3543 20.296 79.0823 20.616 79.6263 21.144C80.1863 21.656 80.4663 22.304 80.4663 23.088C80.4663 23.84 80.2663 24.512 79.8663 25.104C79.4823 25.696 78.8663 26.16 78.0183 26.496C77.1703 26.832 76.0583 27 74.6823 27H68.4423V13.896H74.6823C75.7063 13.896 76.6183 14.008 77.4183 14.232C78.2343 14.44 78.8743 14.8 79.3383 15.312C79.8183 15.808 80.0583 16.48 80.0583 17.328ZM76.4343 17.616C76.4343 16.816 75.8023 16.416 74.5383 16.416H72.0183V19.008H74.1303C74.8823 19.008 75.4503 18.904 75.8343 18.696C76.2343 18.472 76.4343 18.112 76.4343 17.616ZM76.7703 22.896C76.7703 22.384 76.5623 22.016 76.1463 21.792C75.7463 21.552 75.1543 21.432 74.3703 21.432H72.0183V24.528H74.4423C75.1143 24.528 75.6663 24.408 76.0983 24.168C76.5463 23.912 76.7703 23.488 76.7703 22.896Z" fill="#2C2C2C"/>
<path d="M94.3841 16.584H90.0881V27H86.5121V16.584H82.2161V13.896H94.3841V16.584Z" fill="#2C2C2C"/>
<path d="M108.471 20.424C108.471 22.6 107.895 24.28 106.743 25.464C105.607 26.648 104.055 27.24 102.087 27.24C100.871 27.24 99.7833 26.976 98.8233 26.448C97.8793 25.92 97.1353 25.152 96.5913 24.144C96.0473 23.12 95.7753 21.88 95.7753 20.424C95.7753 18.248 96.3433 16.576 97.4793 15.408C98.6153 14.24 100.175 13.656 102.159 13.656C103.391 13.656 104.479 13.92 105.423 14.448C106.367 14.976 107.111 15.744 107.655 16.752C108.199 17.76 108.471 18.984 108.471 20.424ZM99.4233 20.424C99.4233 21.72 99.6313 22.704 100.047 23.376C100.479 24.032 101.175 24.36 102.135 24.36C103.079 24.36 103.759 24.032 104.175 23.376C104.607 22.704 104.823 21.72 104.823 20.424C104.823 19.128 104.607 18.16 104.175 17.52C103.759 16.864 103.071 16.536 102.111 16.536C101.167 16.536 100.479 16.864 100.047 17.52C99.6313 18.16 99.4233 19.128 99.4233 20.424Z" fill="#2C2C2C"/>
<path d="M120.019 13.896H123.955L118.771 20.184L124.411 27H120.355L115.003 20.352V27H111.427V13.896H115.003V20.256L120.019 13.896Z" fill="#2C2C2C"/>
<path d="M138.022 27H134.446V16.584H131.158C130.95 19.144 130.67 21.208 130.318 22.776C129.982 24.328 129.502 25.464 128.878 26.184C128.27 26.888 127.462 27.24 126.454 27.24C125.622 27.24 124.942 27.112 124.414 26.856V24C124.782 24.16 125.166 24.24 125.566 24.24C125.854 24.24 126.118 24.096 126.358 23.808C126.598 23.52 126.822 23 127.03 22.248C127.254 21.496 127.454 20.448 127.63 19.104C127.806 17.744 127.966 16.008 128.11 13.896H138.022V27Z" fill="#2C2C2C"/>
<path d="M159.851 20.424C159.851 22.6 159.299 24.28 158.195 25.464C157.091 26.648 155.595 27.24 153.707 27.24C152.091 27.24 150.739 26.784 149.651 25.872C148.563 24.944 147.907 23.52 147.683 21.6H145.331V27H141.755V13.896H145.331V18.936H147.731C147.971 17.24 148.627 15.936 149.699 15.024C150.771 14.112 152.131 13.656 153.779 13.656C154.947 13.656 155.987 13.92 156.899 14.448C157.827 14.976 158.547 15.744 159.059 16.752C159.587 17.76 159.851 18.984 159.851 20.424ZM151.283 20.424C151.283 21.72 151.475 22.704 151.859 23.376C152.243 24.032 152.875 24.36 153.755 24.36C154.619 24.36 155.243 24.032 155.627 23.376C156.011 22.704 156.203 21.72 156.203 20.424C156.203 19.128 156.011 18.16 155.627 17.52C155.243 16.864 154.611 16.536 153.731 16.536C152.867 16.536 152.243 16.864 151.859 17.52C151.475 18.16 151.283 19.128 151.283 20.424Z" fill="#2C2C2C"/>
<path d="M165.711 13.896V18.696C165.711 19.832 166.239 20.4 167.295 20.4C167.983 20.4 168.623 20.328 169.215 20.184C169.807 20.024 170.399 19.816 170.991 19.56V13.896H174.567V27H170.991V21.792C170.431 22.096 169.791 22.376 169.071 22.632C168.351 22.872 167.535 22.992 166.623 22.992C165.263 22.992 164.175 22.648 163.359 21.96C162.543 21.256 162.135 20.192 162.135 18.768V13.896H165.711Z" fill="#2C2C2C"/>
<path d="M181.773 13.896V19.08C181.773 19.352 181.757 19.688 181.725 20.088C181.709 20.488 181.685 20.896 181.653 21.312C181.637 21.728 181.613 22.104 181.581 22.44C181.549 22.76 181.525 22.976 181.509 23.088L187.557 13.896H191.853V27H188.397V21.768C188.397 21.352 188.413 20.88 188.445 20.352C188.477 19.824 188.509 19.336 188.541 18.888C188.589 18.424 188.621 18.072 188.637 17.832L182.613 27H178.317V13.896H181.773Z" fill="#2C2C2C"/>
<path d="M20 14.5L21 14.5L21 13.5L21 11C21 8.79472 22.7947 7 25 7L35 7C37.2053 7 39 8.79471 39 11L39 26C39 28.2053 37.2053 30 35 30L25 30C22.7947 30 21 28.2053 21 26L21 23.1716L21 22.6366L20.5549 22.3397L17.8754 20.5526L17.3925 20.2305L16.8732 20.4901L12.3935 22.7306L9.30457 20.672L8.74985 20.3023L8.19522 20.6721L5.69429 22.3398L0.999999 19.8935L1 16.3227L4.64641 14.5L20 14.5ZM26.5 23.5L26.5 24.5L27.5 24.5L32.5 24.5L33.5 24.5L33.5 23.5L33.5 13.5L33.5 12.5L32.5 12.5L27.5 12.5L26.5 12.5L26.5 13.5L26.5 23.5Z" stroke="#FF8200" stroke-width="2"/>
</svg>
