<svg width="41" height="45" viewBox="0 0 41 45" fill="none" xmlns="http://www.w3.org/2000/svg">
<path d="M20.7369 10.0624L20.7388 10.0636C20.8589 10.1389 24.6281 12.4407 31.807 13.9534L31.8071 13.9534C31.9053 13.9741 31.9621 14.0165 31.9867 14.0433C31.9939 14.0512 31.9979 14.0569 32 14.0604C31.9977 22.4307 28.7967 30.1363 20.73 34.9417L20.73 34.9418C20.5996 35.0194 20.4002 35.0194 20.27 34.9418L20.2699 34.9417C15.2532 31.9532 12.047 27.7611 10.3735 22.9246C9.35126 19.9702 9.00066 17.2168 9 14.0605C9.00208 14.057 9.00606 14.0512 9.01328 14.0434C9.03793 14.0165 9.09472 13.9741 9.19299 13.9534C16.4037 12.434 20.1199 10.1526 20.2631 10.0625C20.3952 9.97916 20.6049 9.9792 20.7369 10.0624ZM32.002 14.0646C32.002 14.0646 32.0017 14.064 32.0013 14.0628L32.002 14.0646ZM8.99801 14.0646C8.99795 14.0646 8.99812 14.064 8.99868 14.0629L8.99801 14.0646ZM21.2702 9.21651C21.3039 9.23763 24.9641 11.4895 32.0132 12.9749L21.2702 9.21651Z" stroke="#FF8200" stroke-width="2"/>
<path d="M21.2256 1.20407L21.2237 1.20286C20.8016 0.932395 20.1987 0.932356 19.7763 1.20289C19.6032 1.31371 13.5777 5.08643 1.82779 7.60261L21.2256 1.20407ZM21.2256 1.20407C21.3674 1.29443 27.4801 5.09883 39.1723 7.60262L39.1723 7.60263M21.2256 1.20407L39.1723 7.60263M39.1723 7.60263C39.7549 7.72736 40 8.12977 40 8.41921C40 22.5658 34.6661 35.6595 21.1987 43.8126L21.1987 43.8127M39.1723 7.60263L21.1987 43.8127M21.1987 43.8127C20.786 44.0625 20.2137 44.0624 19.8013 43.8127L19.8012 43.8126M21.1987 43.8127L19.8012 43.8126M19.8012 43.8126C11.442 38.752 6.0843 31.6394 3.28931 23.4304M19.8012 43.8126L3.28931 23.4304M3.28931 23.4304C1.58156 18.4145 1 13.7431 1 8.41921M3.28931 23.4304L1 8.41921M1 8.41921C1 8.12989 1.24506 7.72744 1.82775 7.60262L1 8.41921ZM21.7632 0.360843C21.8184 0.396045 27.8212 4.1492 39.3817 6.62479L21.7632 0.360843Z" stroke="#FF8200" stroke-width="2"/>
</svg>
